<?xml version="1.0" encoding="utf-8"?>
<!-- Generator: Adobe Illustrator 26.0.1, SVG Export Plug-In . SVG Version: 6.00 Build 0)  -->
<svg version="1.1" id="Layer_1" xmlns="http://www.w3.org/2000/svg" xmlns:xlink="http://www.w3.org/1999/xlink" x="0px" y="0px"
	 viewBox="0 0 138.78 119.36" style="enable-background:new 0 0 138.78 119.36;" xml:space="preserve">
<style type="text/css">
	.st0{fill:#FFFFFF;}
</style>
<g>
	<path class="st0" d="M53.69,85.7c1.01,3.87-1.85,8.13-5.78,8.81c-3.65,0.78-7.57-1.8-8.41-5.44c-1.01-3.53,1.34-7.52,4.83-8.64
		C48.19,78.91,52.91,81.66,53.69,85.7z"/>
	<path class="st0" d="M90.09,86.93c0.28,4.04-3.25,7.8-7.29,7.69c-4.21,0.06-7.96-4.15-7.18-8.36c0.33-2.97,2.8-5.44,5.66-6.06
		C85.49,79.08,89.98,82.67,90.09,86.93z"/>
	<path class="st0" d="M95.14,28.66c-22.21,0.06-44.37-0.11-66.58,0.11c-2.07,0.17-2.86,2.69-2.19,4.43
		c2.86,11.16,5.61,22.43,8.53,33.6c0.28,1.74,2.02,2.69,3.65,2.58h47.11c1.57,0.11,3.37-0.56,3.7-2.3
		c3.09-11.39,5.95-22.77,8.98-34.16C99.18,30.84,97.38,28.38,95.14,28.66z M34.73,40.66c-0.73-1.85-1.18-3.87-1.51-5.89
		c5.22,0.06,10.38-0.17,15.54,0.17c0.17,1.91,0.34,3.81,0.28,5.78C44.27,40.71,39.5,40.77,34.73,40.66z M37.54,52.04
		c-0.62-1.68-1.01-3.42-1.29-5.16c4.43-0.06,8.86-0.34,13.23,0.11c0.28,1.74,0.39,3.42,0.34,5.16
		C45.73,52.21,41.63,52.44,37.54,52.04z M50.61,63.09c-3.42,0.06-6.84,0.11-10.26,0c-0.56-1.51-0.95-3.09-1.18-4.66
		c3.7,0,7.35-0.05,11.05,0.06C50.55,60.01,50.66,61.58,50.61,63.09z M68.61,63.15c-3.87,0-7.74,0-11.61-0.06
		c-0.39-1.51-0.45-3.09-0.39-4.66c3.98,0,8.08-0.05,12.06,0.06C69.34,59.84,68.72,61.63,68.61,63.15z M69.45,51.87
		c-4.38,0.67-8.92,0.39-13.35,0.17c-0.22-1.68-0.34-3.42-0.28-5.16c4.6-0.06,9.31-0.39,13.91,0.17
		C69.73,48.68,69.68,50.31,69.45,51.87z M70.18,40.6c-4.94,0.17-9.82,0.11-14.75,0.06c-0.39-1.91-0.5-3.93-0.39-5.89
		c5.16,0,10.32-0.06,15.48,0.06C70.52,36.73,70.35,38.7,70.18,40.6z M84.09,63.04c-2.97,0.23-6,0.11-9.03,0.11
		c-0.11-1.57-0.06-3.14,0.11-4.65c3.42-0.11,6.79-0.06,10.15,0C84.99,60.01,84.65,61.52,84.09,63.04z M86.61,52.1
		c-3.59,0.22-7.23,0.11-10.82,0.11c-0.17-1.79-0.06-3.53,0.22-5.33c4.04-0.22,8.13-0.06,12.23-0.06
		C87.79,48.56,87.85,50.81,86.61,52.1z M89.87,40.66c-4.37,0.11-8.81,0.06-13.18,0c-0.62-1.8,0-3.93,0.12-5.83
		c4.82-0.11,9.7-0.11,14.58,0C91.05,36.79,90.6,38.75,89.87,40.66z"/>
	<path class="st0" d="M123.69,24.79c2.97,0.28,3.37,4.99,0.5,5.83c-5.1,0.56-10.32-0.11-15.42,0.34
		c-4.15,14.75-8.13,29.5-12.17,44.31c-0.34,1.74-1.96,3.03-3.75,2.81c-19.75-0.06-39.43,0.06-59.18-0.06
		c-3.81,0.11-3.98-6.06-0.11-6.11c19.19-0.17,38.37,0.11,57.55-0.11c4.37-14.86,8.13-29.95,12.4-44.87
		c0.34-1.23,1.51-2.24,2.86-2.13C112.13,24.73,117.91,24.67,123.69,24.79z"/>
</g>
</svg>
