<?xml version="1.0" encoding="utf-8"?>
<!-- Generator: Adobe Illustrator 26.0.1, SVG Export Plug-In . SVG Version: 6.00 Build 0)  -->
<svg version="1.1" id="Layer_1" xmlns="http://www.w3.org/2000/svg" xmlns:xlink="http://www.w3.org/1999/xlink" x="0px" y="0px"
	 viewBox="0 0 228.99 191.23" style="enable-background:new 0 0 228.99 191.23;" xml:space="preserve">
<style type="text/css">
	.st0{fill:#FFFFFF;}
</style>
<g>
	<path class="st0" d="M86.95,82.7c1.23,0.13,2.46,0.26,3.7,0.38c4.21,0.4,8.35-0.03,12.44-1.04c6.12-1.51,11.73-4.18,17.07-7.46
		c7.63-4.69,14.43-10.43,20.7-16.8c1.64-1.66,3.18-3.42,4.76-5.13c0.14-0.15,0.26-0.33,0.44-0.55c-0.36-0.44-0.7-0.9-1.08-1.32
		c-5.74-6.62-12.36-12.22-19.83-16.79c-6.37-3.9-13.16-6.81-20.47-8.47c-5.11-1.16-10.28-1.66-15.52-1.43c-0.69,0.03-1.39,0-2.1,0
		c-0.17-0.59-0.23-11.84-0.05-13.23c31.37,0,62.75,0,94.19,0c0,33.13,0,66.23,0,99.4c-31.39,0-62.77,0-94.21,0
		c-0.02-0.13-0.07-0.27-0.07-0.41c0-3.64,0-7.27,0-10.91c0-0.09,0.02-0.18,0.04-0.27l-0.03,0.02c0.33,0.01,0.67,0.03,1,0.04
		c2.06,0.08,4.12,0.25,6.17,0.22c4.98-0.06,9.91-0.63,14.82-1.42c6.97-1.13,13.84-2.71,20.62-4.68c9.03-2.62,17.84-5.82,26.27-10
		c4.57-2.27,8.97-4.81,12.99-7.96c0.35-0.27,0.69-0.56,1.11-0.9c-0.38-0.31-0.66-0.58-0.98-0.8c-0.91-0.61-1.8-1.23-2.74-1.78
		c-2.68-1.54-5.38-3.03-8.07-4.56c-1.78-1.02-3.55-2.07-5.39-3.15c-0.24,0.19-0.51,0.42-0.79,0.65c-3.51,2.84-6.96,5.76-10.53,8.51
		c-5.8,4.46-11.94,8.39-18.57,11.53c-10.31,4.88-21.14,7.27-32.57,6.81c-1.11-0.04-2.22-0.24-3.33-0.36l0.02,0.02
		c0-2.73,0-5.47,0-8.2C86.97,82.67,86.95,82.7,86.95,82.7z"/>
	<path class="st0" d="M86.98,98.67c-9.89-0.96-19.01-4.13-27.32-9.6c-5.07-3.34-9.57-7.33-13.58-11.88
		c-6.31-7.15-11.27-15.15-14.89-23.97c-0.15-0.36-0.27-0.73-0.43-1.15c1.04-0.93,2.03-1.85,3.07-2.74
		c8.43-7.2,17.57-13.31,27.63-18.01c6-2.8,12.22-4.98,18.75-6.19c1.99-0.37,4.01-0.58,6.02-0.85c0.18-0.02,0.36,0,0.65,0
		c0.13,2.35-0.02,4.7,0.08,7.13c0.35,0,0.67,0.01,0.99,0c4.38-0.23,8.71,0.09,12.98,1.18c6.1,1.56,11.62,4.3,16.73,7.93
		c4.45,3.16,8.43,6.82,11.91,11.02c0.17,0.21,0.34,0.43,0.51,0.64c0.06,0.07,0.1,0.15,0.17,0.27c-0.06,0.11-0.11,0.26-0.2,0.37
		c-5.37,6.95-11.47,13.15-18.84,18.01c-3.46,2.28-7.15,4.09-11.19,5.11c-4.18,1.05-8.34,1.01-12.48-0.21
		c-0.14-0.04-0.29-0.07-0.44-0.1c-0.03-0.01-0.06,0.01-0.17,0.03c0,2.33,0,4.69,0,7.04c0,0,0.02-0.03,0.02-0.03
		c-0.14-0.05-0.28-0.11-0.43-0.14c-5.43-1.01-10.34-3.2-14.67-6.61c-6.49-5.11-10.85-11.74-13.67-19.43c-0.8-2.18-1-1.56,0.79-3.18
		c7.98-7.23,17.29-11.58,28-12.85c-0.02,0.15-0.06,0.3-0.06,0.45c0,2.3-0.01,4.59,0,6.89c0,0.21,0.07,0.41,0.1,0.61
		c-0.41-0.09-0.81-0.23-1.23-0.25c-1.71-0.09-3.38,0.15-5.02,0.64c-4.12,1.22-7.48,3.63-10.47,6.64c-0.45,0.45-0.52,0.85-0.31,1.44
		c1.48,4.15,3.55,7.96,6.41,11.32c2.61,3.07,5.72,5.48,9.5,6.96c0.3,0.12,0.61,0.2,1,0.32c0-0.5,0-0.86,0-1.22
		c0-8.27,0-16.54,0-24.8c0-0.36,0.06-0.71,0.09-1.07c0.5,0.03,1.01,0.03,1.51,0.1c4.21,0.65,7.65,2.59,10.16,6.07
		c0.37,0.52,0.77,1.02,1.1,1.56c1.3,2.08,2.58,4.17,3.87,6.26c0.16,0.25,0.32,0.5,0.53,0.83c4.28-3.61,8.51-7.17,12.78-10.77
		c-0.38-0.44-0.7-0.84-1.05-1.21c-2.89-3.12-6.22-5.66-10.01-7.59c-3.82-1.95-7.86-3.12-12.16-3.38c-2.28-0.14-4.54,0.01-6.8,0.23
		c-0.02-2.96-0.04-5.92-0.06-8.91c-0.35,0-0.62-0.03-0.89,0.01c-1.95,0.27-3.91,0.47-5.84,0.85c-8.12,1.57-15.51,4.86-22.21,9.7
		c-4.27,3.09-8.09,6.65-11.34,10.82c-0.37,0.48-0.46,0.89-0.24,1.48c3.23,8.61,7.85,16.37,14.27,23
		c5.33,5.52,11.58,9.62,18.95,11.91c2.4,0.75,4.84,1.34,7.36,1.54c0,0-0.02-0.02-0.02-0.02c0,2.62,0,5.23,0,7.85L86.98,98.67z"/>
	<path class="st0" d="M118.03,128.15c0.32,0,0.59,0,0.86,0c4.76,0,9.52-0.01,14.27,0c2.85,0.01,5.69,0.14,8.5,0.71
		c3.66,0.74,6.76,2.42,9.04,5.46c1.38,1.85,2.21,3.96,2.72,6.19c1.16,5.12,1.07,10.22-0.43,15.26c-1.56,5.25-5.18,8.27-10.5,9.24
		c-1.96,0.35-3.97,0.51-5.96,0.54c-5.97,0.07-11.94,0.03-17.91,0.03c-0.18,0-0.36-0.02-0.54-0.03
		C117.88,164.92,117.82,129.41,118.03,128.15z M128.45,157.59c1.69,0,3.29,0.05,4.89-0.02c1.12-0.04,2.25-0.14,3.33-0.38
		c3.59-0.78,5.9-2.95,6.75-6.56c0.61-2.61,0.6-5.24-0.11-7.82c-0.81-2.93-2.67-4.91-5.59-5.83c-0.72-0.23-1.47-0.45-2.21-0.48
		c-2.27-0.11-4.54-0.12-6.81-0.17c-0.08,0-0.15,0.07-0.24,0.12C128.45,143.46,128.45,150.46,128.45,157.59z"/>
	<path class="st0" d="M28.4,137.12c0,9.52,0,18.93,0,28.4c-3.58,0-7.08,0-10.64,0c0-12.44,0-24.87,0-37.36
		c0.3-0.02,0.56-0.05,0.83-0.05c6.34,0,12.67,0,19.01,0.01c2.55,0,5.08,0.24,7.56,0.91c5.24,1.42,8.41,4.81,9.6,10.08
		c0.38,1.69,0.58,3.4,0.58,5.14c0,6.85,0,13.7,0,20.54c0,0.23-0.03,0.47-0.05,0.75c-3.43,0-6.8,0-10.29,0c0-0.4,0-0.75,0-1.11
		c0-5.33,0-10.67-0.01-16c0-1.91-0.1-3.82-0.57-5.68c-0.07-0.26-0.13-0.53-0.22-0.79c-0.92-2.89-2.95-4.43-5.92-4.73
		c-1.2-0.12-2.42-0.1-3.63-0.11c-1.73-0.02-3.46,0-5.18,0C29.14,137.12,28.81,137.12,28.4,137.12z"/>
	<path class="st0" d="M217.76,165.56c-3.84,0-7.53,0-11.31,0c-0.73-2.16-1.47-4.33-2.21-6.54c-5.85,0-11.65,0-17.5,0
		c-0.78,2.2-1.55,4.36-2.33,6.53c-3.44,0-6.83,0-10.21,0c-0.03-0.03-0.05-0.05-0.06-0.07c-0.01-0.03-0.03-0.06-0.03-0.09
		c0.07-0.23,0.13-0.46,0.22-0.69c4.8-12.16,9.6-24.32,14.42-36.5c4.71,0,9.37,0,14.15,0C207.83,140.6,212.78,153.04,217.76,165.56z
		 M202.01,152.48c-2.14-5.84-4.22-11.54-6.31-17.25c-0.06,0-0.11-0.01-0.17-0.01c-2.16,5.73-4.32,11.46-6.51,17.26
		C193.4,152.48,197.63,152.48,202.01,152.48z"/>
	<path class="st0" d="M85.65,128.18c3.65,0,7.16,0,10.79,0c-4.06,12.48-8.1,24.91-12.15,37.36c-5.1,0-10.15,0-15.27,0
		c-4.01-12.43-8.02-24.86-12.05-37.35c3.86,0,7.61,0,11.41,0c2.79,9.79,5.58,19.56,8.37,29.33c0.06,0,0.12-0.01,0.17-0.01
		C79.83,147.74,82.73,137.98,85.65,128.18z"/>
	<path class="st0" d="M101.03,128.18c3.48,0,6.9,0,10.31,0c0.19,0.66,0.24,36.2,0.05,37.36c-3.43,0-6.87,0-10.31,0
		C100.89,164.9,100.83,129.35,101.03,128.18z"/>
	<path class="st0" d="M169.59,165.57c-3.47,0-6.89,0-10.3,0c-0.2-0.65-0.27-36.07-0.07-37.36c3.43,0,6.88,0,10.32,0
		C169.73,128.82,169.79,164.26,169.59,165.57z"/>
</g>
</svg>
