<?xml version="1.0" encoding="utf-8"?>
<!-- Generator: Adobe Illustrator 26.0.1, SVG Export Plug-In . SVG Version: 6.00 Build 0)  -->
<svg version="1.1" id="Layer_1" xmlns="http://www.w3.org/2000/svg" xmlns:xlink="http://www.w3.org/1999/xlink" x="0px" y="0px"
	 viewBox="0 0 341.34 121.51" style="enable-background:new 0 0 341.34 121.51;" xml:space="preserve">
<style type="text/css">
	.st0{fill:#FFFFFF;}
</style>
<g>
	<path class="st0" d="M14.16,97.68c0.08-0.29,0.14-0.54,0.22-0.78c8.82-24.3,17.64-48.59,26.44-72.89c0.21-0.57,0.47-0.76,1.07-0.75
		c4.01,0.03,7.95,0.44,11.66,2.06c3.06,1.33,5.75,3.21,7.61,6.03c0.74,1.12,1.19,2.43,1.81,3.74c0.15-0.08,0.37-0.18,0.58-0.31
		c6.13-3.69,12.49-6.87,19.37-8.96c6.46-1.96,13.04-2.84,19.78-2.5c3.14,0.16,6.26,0.61,9.16,1.91c4.45,2,8.15,4.78,9.49,9.93
		c0.39-0.21,0.72-0.37,1.03-0.56c5.24-3.11,10.6-5.95,16.4-7.9c4.16-1.4,8.38-2.55,12.75-3.04c5.6-0.62,11.19-0.74,16.69,0.79
		c3.4,0.95,6.31,2.75,8.76,5.28c2.04,2.1,2.89,4.73,3.27,7.57c0.51,3.83-0.48,7.37-1.78,10.92c-5.95,16.26-11.83,32.54-17.73,48.81
		c-0.16,0.44-0.31,0.7-0.88,0.7c-9.33-0.02-18.66-0.02-27.99-0.02c-0.19,0-0.38-0.02-0.68-0.04c0.1-0.31,0.18-0.58,0.28-0.83
		c5.56-15.33,11.12-30.66,16.68-45.99c0.65-1.81,1.16-3.64,0.95-5.61c-0.22-2.02-1.27-3.42-3.13-4.2c-1.7-0.71-3.5-0.83-5.3-0.68
		c-3.86,0.33-7.59,1.24-10.94,3.18c-1.78,1.03-3.37,2.45-4.89,3.86c-3.28,3.05-6.24,6.42-8.19,10.48c-1.25,2.6-2.18,5.36-3.17,8.07
		c-3.78,10.35-7.52,20.72-11.27,31.08c-0.15,0.41-0.28,0.68-0.83,0.67c-9.4-0.02-18.81-0.01-28.21-0.02c-0.14,0-0.28-0.02-0.5-0.03
		c0.11-0.35,0.2-0.66,0.31-0.97c5.54-15.26,11.09-30.52,16.6-45.78c0.43-1.18,0.73-2.43,0.94-3.67c0.63-3.71-1.42-6.49-5.22-6.75
		c-7.12-0.49-13.42,1.49-18.64,6.54c-3.29,3.18-6.4,6.53-8.43,10.66c-1.25,2.54-2.18,5.25-3.15,7.93
		c-3.82,10.46-7.61,20.94-11.4,31.42c-0.15,0.41-0.27,0.68-0.81,0.68c-9.4-0.02-18.81-0.01-28.21-0.02
		C14.51,97.71,14.37,97.69,14.16,97.68z"/>
	<path class="st0" d="M171.8,94.59c1.23-3.4,2.44-6.75,3.67-10.13c1.48,0.23,2.93,0.49,4.39,0.68c3.16,0.41,6.31,0.81,9.47,1.15
		c5.25,0.56,10.52,0.77,15.79,0.68c3.69-0.07,7.37-0.4,10.83-1.86c2.71-1.14,4.72-2.93,5.55-5.89c0.65-2.32-0.07-4.14-1.76-5.68
		c-2.38-2.17-5.21-3.66-8.05-5.11c-3.71-1.89-7.52-3.59-11.2-5.53c-2.11-1.11-4.19-2.38-6.01-3.9c-4.64-3.88-5.96-9.45-3.94-15.13
		c1.72-4.84,4.96-8.43,9.19-11.17c6.41-4.16,13.29-7.24,20.91-8.34c3.52-0.51,7.1-0.87,10.65-0.93c5.77-0.11,11.55-0.06,17.32,0.17
		c4.25,0.17,8.49,0.68,12.73,1.17c2.94,0.35,5.86,0.93,8.78,1.4c0.45,0.07,0.55,0.22,0.39,0.67c-1.12,3.05-2.23,6.11-3.33,9.17
		c-0.15,0.41-0.36,0.46-0.76,0.4c-4.65-0.63-9.28-1.38-13.95-1.8c-4.65-0.41-9.33-0.57-14-0.65c-3.71-0.06-7.44,0.18-10.97,1.51
		c-1.35,0.51-2.67,1.21-3.83,2.06c-1.9,1.39-2.81,3.43-2.97,5.75c-0.11,1.48,0.62,2.67,1.61,3.71c1.7,1.77,3.78,3.04,5.93,4.14
		c4.06,2.09,8.22,4.01,12.27,6.13c2.35,1.23,4.71,2.52,6.81,4.12c5.23,3.98,6.74,9.77,4.49,15.95c-1.76,4.83-5.09,8.34-9.33,11.06
		c-6.23,3.99-12.89,6.96-20.25,8.12c-2.88,0.45-5.8,0.73-8.71,0.9c-3.4,0.2-6.81,0.34-10.2,0.27c-4.84-0.11-9.67-0.36-14.5-0.68
		c-5.64-0.38-11.22-1.24-16.77-2.31C172.02,94.68,171.96,94.65,171.8,94.59z"/>
	<path class="st0" d="M256.1,97.71c0.6-1.68,1.15-3.2,1.7-4.73c5.74-15.82,11.49-31.63,17.21-47.45c0.26-0.71,0.58-1.08,1.36-1.19
		c3.69-0.51,7.37-1.17,11.07-1.61c3.68-0.44,7.39-0.72,11.09-0.98c2.27-0.16,4.55-0.15,6.83-0.21c0.11,0,0.23,0.03,0.43,0.06
		c-0.55,1.52-1.08,3-1.61,4.47c-6.14,16.92-12.28,33.83-18.41,50.76c-0.24,0.66-0.53,0.9-1.26,0.89
		c-9.14-0.03-18.27-0.02-27.41-0.02C256.81,97.71,256.53,97.71,256.1,97.71z"/>
	<path class="st0" d="M312.43,23.27c-1.08,2.97-2.1,5.8-3.12,8.63c-0.1,0.27-0.2,0.54-0.3,0.81c-0.45,1.26-0.46,1.22-1.81,1.29
		c-4.97,0.28-9.96,0.44-14.91,0.93c-4.47,0.44-8.89,1.27-13.34,1.92c-0.23,0.03-0.47,0.05-0.81,0.09c0.12-0.36,0.23-0.66,0.34-0.96
		c1.1-3.03,2.21-6.06,3.29-9.1c0.16-0.44,0.38-0.64,0.84-0.73c5.27-1,10.57-1.78,15.92-2.16c4.32-0.31,8.65-0.49,12.98-0.72
		C311.78,23.26,312.04,23.27,312.43,23.27z"/>
	<g>
		<path class="st0" d="M324.05,24.11h-1.85v5.04h-1.25v-5.04h-1.83V23.1h4.92V24.11z"/>
		<path class="st0" d="M326.39,23.1l1.55,4.38l1.54-4.38h1.64v6.04h-1.25V27.5l0.12-2.85l-1.63,4.5h-0.86l-1.63-4.5l0.12,2.85v1.65
			h-1.25V23.1H326.39z"/>
	</g>
</g>
</svg>
