<?xml version="1.0" encoding="utf-8"?>
<!-- Generator: Adobe Illustrator 26.0.1, SVG Export Plug-In . SVG Version: 6.00 Build 0)  -->
<svg version="1.1" id="Layer_1" xmlns="http://www.w3.org/2000/svg" xmlns:xlink="http://www.w3.org/1999/xlink" x="0px" y="0px"
	 viewBox="0 0 131.04 99.53" style="enable-background:new 0 0 131.04 99.53;" xml:space="preserve">
<style type="text/css">
	.st0{fill:#FFFFFF;}
</style>
<g>
	<path class="st0" d="M115.52,78.41c-0.32-0.02-0.64-0.07-0.96-0.07c-11.98,0.15-23.96,0.31-35.94,0.47c-0.32,0-0.64,0.01-1.09,0.01
		c0.03,2.2,0.06,4.34,0.09,6.55c-14.38,0.19-28.63,0.38-43.01,0.56c-0.03-2.15-0.06-4.29-0.09-6.49c-3.34,0.04-6.55,0.09-9.89,0.13
		c-0.01,0.33-0.03,0.67-0.03,1.01c0.02,2.16,0.06,4.33,0.08,6.49c0,0.38-0.02,0.78-0.11,1.15c-0.19,0.8-0.78,1.2-1.56,1.19
		c-0.82-0.01-1.45-0.44-1.56-1.3c-0.1-0.83-0.09-1.67-0.1-2.51c-0.04-2.2-0.06-4.39-0.09-6.59c0-0.35-0.01-0.69-0.01-1.05
		c-1.37-0.16-3.19,0.41-3.25-1.62c-0.06-2.11,1.8-1.61,3.14-1.76c-0.01-0.53-0.01-1-0.02-1.59c-1.6,0.02-3.19,0.04-4.85,0.06
		c-0.11-8.31-0.22-16.5-0.33-24.81c1.58-0.02,3.17-0.04,4.84-0.06c-0.01-0.59-0.01-1.06-0.02-1.59c-1.24-0.24-3.2,0.41-3.18-1.77
		c0.02-2.03,1.87-1.47,3.14-1.66c-0.02-1.66-0.04-3.25-0.06-4.93c-1.63,0.02-3.2,0.04-4.84,0.06c-0.04-3.32-0.09-6.56-0.13-9.9
		c1.59-0.02,3.19-0.04,4.84-0.06c-0.04-2.79-0.07-5.49-0.11-8.3c-1.02,0.01-1.97,0.04-2.93,0.03c-1.24-0.01-1.99-0.64-1.99-1.63
		c0-0.96,0.71-1.62,1.89-1.66c1.42-0.05,2.84-0.06,4.26-0.06c1.45,0,2.07,0.6,2.12,2.04c0.04,1.48,0.04,2.95,0.07,4.54
		c0.45-0.01,0.8-0.01,1.14-0.01c29.61-0.39,59.22-0.78,88.83-1.17c0.32,0,0.64-0.05,0.96-0.08
		C115.03,40.82,115.27,59.61,115.52,78.41z M23.95,26.64c0.22,16.54,0.43,32.99,0.65,49.5c29.19-0.38,58.32-0.76,87.51-1.15
		c-0.22-16.51-0.43-32.98-0.65-49.5C82.28,25.87,53.17,26.26,23.95,26.64z M74.24,82.12c-0.01-0.8-0.08-1.48-0.01-2.15
		c0.09-0.91-0.27-1.12-1.14-1.11c-11.4,0.18-22.79,0.32-34.19,0.47c-0.34,0-0.68,0.04-1.03,0.06c0.01,1.12,0.03,2.14,0.04,3.21
		c0.52-0.01,0.99-0.01,1.51-0.02c0.04-0.55,0.08-1.05,0.13-1.58c1.07-0.01,2.1-0.03,3.17-0.04c0.06,0.53,0.11,1.03,0.17,1.58
		c0.52-0.01,0.99-0.01,1.51-0.02c0.03-0.54,0.06-1.04,0.09-1.56c1.1-0.01,2.15-0.03,3.21-0.04c0.03,0.54,0.06,1.01,0.1,1.54
		c0.54-0.01,1.04-0.01,1.58-0.02c0.04-0.56,0.07-1.05,0.11-1.55c1.1-0.01,2.11-0.03,3.19-0.04c0.05,0.54,0.09,1.04,0.13,1.55
		c0.55-0.01,1.01-0.01,1.51-0.02c0.04-0.56,0.07-1.06,0.1-1.56c1.11-0.01,2.13-0.03,3.19-0.04c0.05,0.54,0.09,1.04,0.14,1.53
		c0.58-0.01,1.08-0.01,1.58-0.02c0.02-0.56,0.04-1.03,0.06-1.52c1.11-0.01,2.15-0.03,3.22-0.04c0.04,0.56,0.07,1.06,0.1,1.53
		c0.58-0.01,1.04-0.01,1.54-0.02c0.04-0.57,0.07-1.06,0.1-1.53c1.13-0.01,2.15-0.03,3.21-0.04c0.04,0.53,0.08,1.01,0.12,1.53
		c0.54-0.01,1.04-0.01,1.55-0.02c0.02-0.54,0.04-1.02,0.06-1.55c1.09-0.01,2.14-0.03,3.22-0.04c0.04,0.55,0.08,1.04,0.12,1.56
		C73.17,82.13,73.64,82.13,74.24,82.12z M21.07,69.57c-0.08-6.05-0.16-12.05-0.24-18.05c-0.57,0.01-1.06,0.01-1.53,0.02
		c0.08,6.07,0.16,12.05,0.24,18.05C20.08,69.59,20.55,69.58,21.07,69.57z M20.6,31.64c-0.58,0.01-1.05,0.01-1.57,0.02
		c0.01,1.09,0.03,2.13,0.04,3.19c0.55-0.01,1.04-0.01,1.57-0.02C20.63,33.75,20.62,32.74,20.6,31.64z"/>
	<path class="st0" d="M81.8,27.49c2.32-0.03,4.65,0,6.97-0.11c1.37-0.07,2.59,0.24,3.81,0.81c9.17,4.29,15.12,14.15,14.2,24.2
		c-0.91,9.88-6.08,16.92-15.11,21.08c-0.34,0.15-0.74,0.21-1.12,0.21c-5.42,0.08-10.85,0.19-16.27,0.18c-0.91,0-1.89-0.39-2.72-0.82
		c-9.09-4.67-14.21-12.13-14.18-22.36c0.02-10.68,5.41-18.3,15.08-22.85c0.36-0.17,0.81-0.22,1.22-0.22
		C76.37,27.56,79.08,27.53,81.8,27.49z M82.37,70.5c2.49-0.03,4.97-0.05,7.46-0.11c0.43-0.01,0.91-0.1,1.29-0.3
		c8.06-4.11,12.5-10.69,12.36-19.75c-0.13-9.06-4.76-15.51-12.93-19.39c-0.36-0.17-0.8-0.24-1.21-0.24c-5,0.05-10.01,0.11-15.01,0.2
		c-0.43,0.01-0.91,0.1-1.29,0.29c-7.99,4.07-12.41,10.6-12.38,19.57c0.03,8.72,4.37,15.1,12.06,19.2c0.9,0.48,1.84,0.68,2.87,0.64
		C77.85,70.52,80.11,70.53,82.37,70.5z"/>
	<path class="st0" d="M64.78,27.93c-7.75,5.82-12.63,13.09-12.47,23.16c0.16,10.01,5.19,17.15,13.1,22.71
		c-0.05,0.07-0.11,0.15-0.16,0.22c-0.34,0-0.67,0.01-1.01,0.01c-6.2,0.08-12.4,0.06-18.59,0.27c-5.8,0.19-10.06-2.4-13.24-6.96
		c-4.02-5.75-5.27-12.24-4.74-19.14c0.35-4.61,1.64-8.94,4.21-12.82c3.14-4.74,7.35-7.52,13.27-7.45c6.2,0.07,12.4-0.13,18.59-0.21
		c0.29,0,0.58-0.01,0.86-0.01C64.66,27.79,64.72,27.86,64.78,27.93z M56.45,31.13c-0.61,0.01-0.92,0.01-1.23,0.02
		c-2.74,0.04-5.49,0.07-8.23,0.11c-0.58,0.01-1.16,0.05-1.74,0.02c-4.98-0.25-8.39,2.25-10.9,6.26c-2.11,3.38-3.14,7.12-3.42,11.07
		c-0.42,5.88,0.55,11.46,3.83,16.46c2.3,3.51,5.36,5.94,9.82,5.92c3.84-0.02,7.68-0.09,11.52-0.15c0.2,0,0.39-0.06,0.77-0.12
		c-5.43-5.55-7.74-12.2-7.83-19.67C48.96,43.58,51.11,36.88,56.45,31.13z"/>
	<path class="st0" d="M109.87,28.8c0,0.88-0.7,1.6-1.57,1.63c-0.9,0.02-1.68-0.74-1.68-1.64c0-0.86,0.74-1.61,1.59-1.63
		C109.11,27.14,109.87,27.89,109.87,28.8z"/>
	<path class="st0" d="M28.85,29.88c-0.01,0.87-0.72,1.6-1.59,1.62c-0.89,0.02-1.69-0.76-1.68-1.65c0.01-0.84,0.77-1.61,1.61-1.63
		C28.1,28.2,28.86,28.96,28.85,29.88z"/>
	<path class="st0" d="M27.84,74.49c-0.84,0.02-1.63-0.7-1.68-1.55c-0.06-0.88,0.7-1.7,1.6-1.72c0.88-0.02,1.61,0.66,1.66,1.54
		C29.46,73.68,28.74,74.47,27.84,74.49z"/>
	<path class="st0" d="M110.43,71.82c-0.01,0.87-0.73,1.6-1.59,1.62c-0.89,0.01-1.67-0.77-1.65-1.66c0.02-0.87,0.73-1.59,1.6-1.6
		C109.71,70.15,110.44,70.89,110.43,71.82z"/>
	<path class="st0" d="M71.76,51.09c-1.21,0.12-2.41,0.22-3.62,0.36c-0.35,0.04-0.69,0.19-1.03,0.24c-1.83,0.31-3.46-1.09-3.16-2.91
		c0.5-3.07,1.44-6,3.15-8.66c0.52-0.8,1.13-1.07,2.01-0.81c1.76,0.52,3.51,1.04,5.27,1.56c0.29,0.09,0.57,0.22,0.86,0.32
		c0.06-0.07,0.11-0.13,0.17-0.2c-0.53-0.62-0.99-1.31-1.61-1.83c-2.25-1.91-1.36-4.73,1.26-5.26c2.11-0.43,4.18-1.08,6.3-1.43
		c2.53-0.42,3-0.14,3.82,2.26c0.52,1.51,0.78,3.12,1.15,4.68c0.07,0.3,0.1,0.61,0.15,0.92c0.09,0.01,0.18,0.03,0.27,0.04
		c0.31-0.93,0.67-1.85,0.92-2.79c0.76-2.82,2.9-3.53,5.03-1.57c1.49,1.38,2.87,2.87,4.28,4.33c0.35,0.37,0.63,0.82,0.89,1.26
		c0.94,1.58,1.02,1.67-0.2,3.02c-1.41,1.58-3,3-4.52,4.48c-0.29,0.29-0.65,0.51-0.97,0.76c0.02,0.1,0.03,0.2,0.05,0.3
		c1.18-0.1,2.37-0.17,3.55-0.3c0.54-0.06,1.07-0.27,1.61-0.29c1.61-0.06,2.96,1.24,2.7,2.82c-0.54,3.26-1.44,6.42-3.48,9.12
		c-0.23,0.3-0.84,0.56-1.19,0.48c-2.28-0.52-4.53-1.15-6.72-1.72c0.17,0.25,0.44,0.69,0.77,1.09c0.35,0.42,0.76,0.79,1.15,1.18
		c0.79,0.8,1.19,1.77,0.74,2.81c-0.27,0.63-0.8,1.37-1.39,1.61c-2.98,1.18-6.03,2.07-9.3,1.87c-0.68-0.04-1.11-0.27-1.29-0.91
		c-0.57-2.04-1.13-4.09-1.68-6.13c-0.07-0.27-0.1-0.55-0.16-0.82c-0.09-0.01-0.17-0.03-0.26-0.04c-0.31,0.93-0.67,1.85-0.92,2.79
		c-0.76,2.82-2.88,3.49-5.06,1.57c-2.04-1.79-4.01-3.64-5.39-6.03c-0.5-0.86-0.55-1.59,0.19-2.32c1.63-1.6,3.24-3.22,4.86-4.82
		c0.27-0.26,0.59-0.47,0.89-0.7C71.82,51.3,71.79,51.19,71.76,51.09z M80.68,57.18c0.04,2.74,0.28,5.33,1.15,7.81
		c0.08,0.24,0.55,0.54,0.79,0.49c1.66-0.29,3.3-0.67,5.14-1.06c-1.97-2.09-3.16-4.33-3.84-6.85c-0.05-0.19-0.42-0.4-0.65-0.41
		C82.45,57.13,81.62,57.17,80.68,57.18z M76.26,36.86c1.94,2.08,3.16,4.25,3.8,6.74c0.06,0.22,0.37,0.51,0.57,0.53
		c0.88,0.05,1.77,0,2.64-0.01c0.18-2.09-0.38-6.3-1.09-7.91c-0.09-0.21-0.55-0.44-0.78-0.39C79.75,36.1,78.12,36.47,76.26,36.86z
		 M88.36,48.34c2.21-1.16,5.32-3.78,6.49-5.55c-1.28-1.32-2.59-2.67-3.99-4.13c-0.78,2.69-2.02,4.88-3.84,6.74
		c-0.15,0.15-0.17,0.6-0.06,0.8C87.37,46.92,87.87,47.6,88.36,48.34z M73.17,62.63c0.78-2.71,2.03-4.9,3.85-6.76
		c0.15-0.15,0.16-0.6,0.05-0.8c-0.41-0.72-0.9-1.4-1.41-2.16c-2.38,1.47-4.62,3.15-6.53,5.53C70.44,59.81,71.73,61.15,73.17,62.63z
		 M96.75,53.05c-2.97,0.64-5.65,0.4-8.26-0.48c-0.54,0.94-1.04,1.81-1.57,2.73c2.28,1.33,4.59,2.52,7.15,3.11
		c0.25,0.06,0.76-0.17,0.85-0.39C95.55,56.45,96.1,54.85,96.75,53.05z M67.29,48.21c2.97-0.61,5.64-0.43,8.22,0.51
		c0.55-0.93,1.07-1.8,1.61-2.72c-2.3-1.39-4.67-2.55-7.26-3.16c-0.23-0.05-0.71,0.26-0.81,0.51C68.45,44.87,67.93,46.43,67.29,48.21
		z M85.3,50.7c-0.01-1.93-1.41-3.37-3.26-3.35c-1.78,0.01-3.26,1.5-3.27,3.29c-0.01,1.78,1.49,3.29,3.26,3.28
		C83.88,53.91,85.31,52.5,85.3,50.7z"/>
</g>
</svg>
