<?xml version="1.0" encoding="utf-8"?>
<!-- Generator: Adobe Illustrator 26.0.1, SVG Export Plug-In . SVG Version: 6.00 Build 0)  -->
<svg version="1.1" id="Layer_1" xmlns="http://www.w3.org/2000/svg" xmlns:xlink="http://www.w3.org/1999/xlink" x="0px" y="0px"
	 viewBox="0 0 124.14 120.66" style="enable-background:new 0 0 124.14 120.66;" xml:space="preserve">
<style type="text/css">
	.st0{fill:#FFFFFF;}
</style>
<g>
	<path class="st0" d="M62.47,8.19c0.91,0.06,1.83,0.13,2.74,0.17c7.69,0.31,14.86,2.51,21.69,5.95
		c11.26,5.67,18.94,14.57,23.68,26.16c0.51,1.25,0.43,2.24-0.7,3.09c-0.65,0.49-1.21,1.1-1.85,1.6c-0.63,0.5-1.32,0.94-2.05,1.46
		c0.2,0.58,0.4,1.26,0.67,1.92c0.07,0.17,0.34,0.33,0.54,0.35c1.06,0.13,2.13,0.24,3.2,0.3c0.43,0.03,0.63,0.19,0.72,0.61
		c0.74,3.37,1.07,6.77,0.91,10.23c-0.35,7.39-1.93,14.53-4.25,21.53c-0.03,0.08-0.06,0.15-0.14,0.33c-0.2-0.87-0.37-1.63-0.56-2.39
		c-0.64-2.54-1.62-4.93-3.11-7.1c-0.17-0.25-0.25-0.65-0.2-0.95c0.25-1.47,0.63-2.92,0.84-4.4c0.25-1.71,0.5-3.44,0.53-5.17
		c0.06-2.8,0.13-5.62-0.17-8.4c-0.23-2.15-1-4.25-1.56-6.37c-0.07-0.25-0.3-0.57-0.51-0.63c-0.97-0.27-1.38-1.02-1.75-1.85
		c-0.7-1.55-1.37-3.1-2.14-4.62c-4.11-8.13-10.54-13.8-18.76-17.54c-6.59-3-13.49-4.35-20.72-3.95c-6.02,0.33-11.7,1.97-17.09,4.64
		c-4.83,2.4-9.16,5.45-12.62,9.65c-2.72,3.3-4.9,6.93-6.53,10.88c-0.26,0.63-0.56,1.24-0.87,1.84c-0.23,0.44-0.59,0.7-1.07,0.89
		c-0.28,0.1-0.59,0.39-0.68,0.67c-0.84,2.57-1.61,5.16-1.77,7.88c-0.17,2.91-0.28,5.82,0.11,8.71c0.36,2.66,0.88,5.29,1.32,7.94
		c0.03,0.19,0,0.45-0.11,0.6c-1.93,2.77-3.04,5.86-3.67,9.15c-0.03,0.15-0.07,0.29-0.21,0.44c-0.47-1.51-0.97-3.02-1.41-4.55
		c-1.22-4.23-2.08-8.54-2.56-12.93c-0.11-1.01-0.16-2.03-0.24-3.05c-0.02-0.22-0.06-0.43-0.09-0.65c0-1.53,0-3.06,0-4.59
		c0.03-0.18,0.06-0.36,0.09-0.55c0.28-1.91,0.56-3.82,0.84-5.74c0.05-0.37,0.23-0.54,0.63-0.57c1.08-0.07,2.17-0.18,3.25-0.3
		c0.18-0.02,0.44-0.12,0.5-0.26c0.28-0.7,0.51-1.42,0.75-2.1c-0.41-0.23-0.77-0.37-1.05-0.6c-1.07-0.89-2.11-1.82-3.18-2.7
		c-0.79-0.65-0.91-1.42-0.53-2.32c0.52-1.23,1.01-2.48,1.59-3.69c2.95-6.24,6.97-11.68,12.19-16.22c4.05-3.52,8.62-6.2,13.53-8.32
		c4.75-2.05,9.69-3.42,14.82-4.09c1.07-0.14,2.15-0.27,3.23-0.4C59.96,8.19,61.22,8.19,62.47,8.19z"/>
	<path class="st0" d="M86.63,66.15c0.69,0.14,1.93,0.34,3.14,0.67c1.22,0.33,1.8,1.08,1.66,2.34c-0.18,1.63-0.49,3.26-0.83,4.87
		c-2.07,9.76-4.78,19.35-7.93,28.81c-0.34,1.03-0.74,2.05-1.2,3.02c-0.58,1.22-1.29,1.54-2.57,1.14c-1.17-0.36-2.32-0.78-3.43-1.27
		c-1.24-0.55-1.65-1.44-1.26-2.75c0.75-2.54,1.58-5.06,2.36-7.58c2.53-8.17,4.71-16.43,6.43-24.8c0.2-1,0.46-1.99,0.78-2.95
		C84.14,66.53,84.9,66.06,86.63,66.15z"/>
	<path class="st0" d="M37.48,66.13c1.79-0.05,2.53,0.41,2.84,1.62c0.55,2.12,1,4.26,1.49,6.4c1.98,8.69,4.36,17.28,7.14,25.75
		c0.34,1.05,0.63,2.12,0.9,3.18c0.34,1.3,0.02,2.08-1.19,2.63c-1.14,0.52-2.33,0.95-3.52,1.31c-1.2,0.36-2.36-0.27-2.77-1.46
		c-0.97-2.82-1.95-5.65-2.84-8.5c-2.64-8.46-4.82-17.05-6.61-25.73c-0.13-0.63-0.23-1.27-0.31-1.91c-0.17-1.33,0.45-2.32,1.75-2.64
		C35.56,66.48,36.79,66.27,37.48,66.13z"/>
	<path class="st0" d="M89.41,108.22c4.08-11.95,7.36-23.96,9.91-36.33c0.3,0.27,0.45,0.39,0.59,0.53c2.49,2.49,3.92,5.54,4.47,8.97
		c1.07,6.66-0.26,12.87-3.83,18.59c-1.76,2.81-4.01,5.14-6.95,6.74C92.35,107.41,91,107.87,89.41,108.22z"/>
	<path class="st0" d="M34.46,108.21c-2.55-0.64-4.76-1.71-6.69-3.34c-3.5-2.97-5.69-6.78-7.14-11.08c-1.5-4.48-1.69-9.04-0.68-13.62
		c0.65-2.94,2.01-5.58,4.21-7.73c0.14-0.14,0.29-0.27,0.54-0.49c0.21,0.87,0.42,1.62,0.58,2.39c2.19,10.55,5.11,20.9,8.47,31.13
		c0.23,0.71,0.41,1.43,0.61,2.15C34.4,107.78,34.41,107.95,34.46,108.21z"/>
	<path class="st0" d="M29.26,68.47c0.87-0.01,1.31,0.34,1.47,1.16c2.2,11.47,5.33,22.7,8.94,33.8c0.37,1.13,0.7,2.27,1,3.42
		c0.06,0.24-0.03,0.6-0.19,0.79c-0.79,0.97-2.36,1.21-3.35,0.46c-0.38-0.29-0.69-0.76-0.86-1.21c-0.62-1.63-1.19-3.29-1.73-4.95
		c-2.93-8.96-5.37-18.05-7.32-27.28c-0.22-1.05-0.36-2.11-0.58-3.15C26.3,69.92,27.15,68.51,29.26,68.47z"/>
	<path class="st0" d="M97.51,71.35c-0.17,0.89-0.4,2.15-0.66,3.39c-2.24,10.44-5.04,20.72-8.52,30.81
		c-0.19,0.56-0.41,1.12-0.65,1.66c-0.78,1.75-3.01,1.72-4.12,0.33c-0.19-0.24-0.19-0.72-0.12-1.05c0.15-0.68,0.39-1.34,0.61-1.99
		c3.83-11.23,6.84-22.69,9.21-34.31c0.03-0.17,0.06-0.33,0.1-0.5c0.21-0.98,0.52-1.22,1.51-1.16c0.25,0.01,0.51,0.04,0.76,0.09
		C96.9,68.85,97.54,69.65,97.51,71.35z"/>
</g>
</svg>
