<?xml version="1.0" encoding="utf-8"?>
<!-- Generator: Adobe Illustrator 26.0.1, SVG Export Plug-In . SVG Version: 6.00 Build 0)  -->
<svg version="1.1" id="Layer_1" xmlns="http://www.w3.org/2000/svg" xmlns:xlink="http://www.w3.org/1999/xlink" x="0px" y="0px"
	 viewBox="0 0 244.72 96.35" style="enable-background:new 0 0 244.72 96.35;" xml:space="preserve">
<style type="text/css">
	.st0{fill:#FFFFFF;}
</style>
<g>
	<path class="st0" d="M194.95,23.93c0,3.18-0.01,6.35-0.01,9.53c0,0.18,0,0.36,0,0.57c-4.65,0.13-8.48,1.91-11.35,5.57
		c-2.06,2.62-3.04,5.64-2.97,8.97c0.08,3.88,1.51,7.21,4.29,9.93c2.77,2.71,6.14,4.01,10.01,4.08c0,3.39,0,6.74,0,10.15
		c-0.69-0.03-1.35-0.04-2.01-0.09c-5.74-0.51-10.75-2.7-14.94-6.66c-4.07-3.85-6.6-8.56-7.37-14.12c-1.06-7.61,1.02-14.32,6.2-20
		c3.9-4.28,8.79-6.79,14.52-7.68c0.64-0.1,1.29-0.17,1.94-0.25C193.82,23.93,194.38,23.93,194.95,23.93z"/>
	<path class="st0" d="M221.32,72.72c-0.29,0.03-0.37-0.11-0.35-0.39c0.02-0.32,0.01-0.64-0.08-1c-0.15,0.23-0.29,0.45-0.44,0.68
		c-0.16,0.25-0.33,0.27-0.5,0c-0.14-0.22-0.29-0.44-0.52-0.64c0,0.35-0.01,0.7,0,1.06c0.01,0.25-0.09,0.32-0.33,0.24
		c0-0.75,0-1.49,0-2.34c0.59,0.34,0.69,1,1.13,1.39c0.24-0.37,0.46-0.75,0.71-1.1c0.08-0.11,0.25-0.15,0.39-0.22
		C221.32,71.18,221.32,71.95,221.32,72.72z"/>
	<path class="st0" d="M217.15,65.79c-3.37,0-6.7,0-10.07,0c0-3.93,0-7.83,0-11.78c-3.95,0-7.86,0-11.79,0c0-3.38,0-6.72,0-10.07
		c7.29,0,14.56,0,21.87,0C217.15,51.22,217.15,58.49,217.15,65.79z"/>
	<path class="st0" d="M137.53,33.6c1.66,0,3.3,0,4.99,0c0,3.42,0,6.83,0,10.31c0.38-0.32,0.69-0.6,1.02-0.85
		c3.05-2.36,8.36-2.2,11.11,0.89c1.24,1.38,1.88,3.02,2.1,4.84c0.07,0.62,0.09,1.26,0.09,1.89c0.01,3.65,0,7.31,0,10.96
		c0,0.15,0,0.31,0,0.49c-1.67,0-3.31,0-5.03,0c0-0.14,0-0.29,0-0.44c0-3.63,0.01-7.26-0.03-10.88c-0.01-0.65-0.16-1.33-0.39-1.95
		c-0.47-1.33-1.46-2.14-2.85-2.38c-1.95-0.34-3.73-0.01-5.05,1.62c-0.7,0.86-0.97,1.89-0.97,2.99c-0.01,3.52,0,7.05,0,10.57
		c0,0.15,0,0.3,0,0.47c-1.69,0-3.33,0-5,0C137.53,52.62,137.53,43.13,137.53,33.6z"/>
	<path class="st0" d="M110.12,55.53c1.12,1.14,2.2,2.25,3.36,3.44c-0.65,0.53-1.29,1.16-2.03,1.63c-3.9,2.47-8.03,2.88-12.26,1
		c-2.82-1.25-4.53-3.55-5.24-6.53c-0.76-3.22-0.37-6.3,1.5-9.08c1.75-2.6,4.25-4.06,7.36-4.45c2.23-0.28,4.37,0.02,6.36,1.11
		c2.7,1.48,4.22,3.84,4.96,6.76c0.38,1.52,0.44,3.07,0.38,4.68c-5.18,0-10.35,0-15.59,0c0.22,0.85,0.56,1.57,1.09,2.19
		c1.63,1.9,3.72,2.3,6.06,1.76c1.34-0.31,2.43-1.08,3.46-1.97C109.72,55.89,109.9,55.73,110.12,55.53z M98.86,49.96
		c3.47,0,6.94,0,10.41,0c-0.43-2.18-2.17-4.16-5.32-4.09C101.01,45.94,99.26,47.93,98.86,49.96z"/>
	<path class="st0" d="M73.16,42.06c0,1.36,0,2.67,0,4c-0.46,0.16-0.91,0.33-1.37,0.49c0.29,0.57,0.62,1.11,0.84,1.68
		c2.24,5.73-0.77,12.7-7.63,14.2c-3.72,0.81-7.13,0.02-9.98-2.59c-2.43-2.22-3.47-5.04-3.35-8.3c0.19-4.96,3.88-9.12,8.79-9.93
		c1.84-0.3,3.64-0.21,5.42,0.37c0.18,0.06,0.38,0.08,0.57,0.08c2.09,0.01,4.17,0,6.26,0C72.85,42.06,72.99,42.06,73.16,42.06z
		 M62.51,57.83c3.25,0,5.78-2.5,5.78-5.72c0-3.29-2.5-5.81-5.78-5.81c-3.22,0-5.74,2.5-5.74,5.72
		C56.77,55.3,59.28,57.83,62.51,57.83z"/>
	<path class="st0" d="M49.97,52.09c-0.06,6.42-5.27,10.79-11.19,10.62c-5.7-0.16-10.61-4.58-10.52-10.81
		c0.08-6.01,4.97-10.54,11.02-10.47C45.24,41.49,49.98,46.16,49.97,52.09z M39.1,57.83c3.27,0,5.79-2.51,5.79-5.76
		c0-3.26-2.52-5.77-5.78-5.77c-3.22,0-5.75,2.51-5.75,5.72C33.35,55.28,35.88,57.83,39.1,57.83z"/>
	<path class="st0" d="M135.56,45.36c-1.17,1.21-2.29,2.37-3.43,3.55c-0.79-0.87-1.66-1.61-2.73-2.08c-2.81-1.25-6.03-0.21-7.44,2.41
		c-1.45,2.7-0.6,6.14,1.91,7.74c2.02,1.29,4.71,1.14,6.77-0.39c0.52-0.39,0.99-0.85,1.53-1.31c0.55,0.54,1.13,1.1,1.69,1.67
		c0.57,0.57,1.13,1.16,1.76,1.81c-0.47,0.46-0.93,0.97-1.45,1.42c-4.9,4.21-12.82,3.11-16.3-2.3c-3.95-6.14-0.82-14.89,7.22-16.25
		c3.78-0.64,7.11,0.37,9.87,3.1C135.21,44.94,135.41,45.19,135.56,45.36z"/>
	<path class="st0" d="M82.52,42.06c0.89,0,1.75,0,2.67,0c0-2.06,0-4.1,0-6.16c1.7,0,3.35,0,5.03,0c0,2.04,0,4.07,0,6.15
		c0.93,0,1.82,0,2.73,0c0,1.51,0,2.98,0,4.48c-0.89,0-1.77,0-2.71,0c0,5.21,0,10.39,0,15.59c-1.7,0-3.34,0-5.02,0
		c0-5.17,0-10.34,0-15.56c-0.92,0-1.8,0-2.7,0C82.52,45.04,82.52,43.58,82.52,42.06z"/>
	<path class="st0" d="M21.32,33.6c1.68,0,3.32,0,4.99,0c0,9.51,0,18.99,0,28.51c-1.66,0-3.31,0-4.99,0
		C21.32,52.6,21.32,43.11,21.32,33.6z"/>
	<path class="st0" d="M51.7,63.49c1.69,0,3.35,0,5.05,0c0.07,1.97,0.84,3.58,2.48,4.73c1.02,0.72,2.18,1.03,3.42,1.01
		c2.82-0.05,5.55-2.23,5.63-5.73c1.68,0,3.36,0,5.09,0c-0.1,3.64-1.48,6.65-4.52,8.67c-3.97,2.63-8.15,2.71-12.24,0.29
		C52.74,70.17,51.56,66.1,51.7,63.49z"/>
	<path class="st0" d="M75.37,42.07c1.66,0,3.3,0,4.97,0c0,6.68,0,13.34,0,20.03c-1.65,0-3.29,0-4.97,0
		C75.37,55.45,75.37,48.78,75.37,42.07z"/>
	<path class="st0" d="M77.85,33.04c1.89,0,3.33,1.42,3.36,3.3c0.02,1.84-1.49,3.32-3.39,3.32c-1.84,0-3.32-1.49-3.31-3.32
		C74.52,34.46,75.96,33.04,77.85,33.04z"/>
	<path class="st0" d="M218.15,72.66c-0.31,0.11-0.38,0.01-0.38-0.23c0.01-0.55,0-1.1,0-1.69c-0.2-0.01-0.39-0.03-0.57-0.04
		c-0.02-0.03-0.05-0.06-0.07-0.09c0.08-0.07,0.16-0.2,0.25-0.2c0.38-0.02,0.77-0.02,1.16,0c0.09,0,0.17,0.13,0.25,0.2
		c-0.02,0.03-0.05,0.07-0.07,0.1c-0.18,0.01-0.35,0.02-0.57,0.03C218.15,71.38,218.15,72.01,218.15,72.66z"/>
</g>
</svg>
