<?xml version="1.0" encoding="utf-8"?>
<!-- Generator: Adobe Illustrator 26.0.1, SVG Export Plug-In . SVG Version: 6.00 Build 0)  -->
<svg version="1.1" id="Layer_1" xmlns="http://www.w3.org/2000/svg" xmlns:xlink="http://www.w3.org/1999/xlink" x="0px" y="0px"
	 viewBox="0 0 345.62 141.45" style="enable-background:new 0 0 345.62 141.45;" xml:space="preserve">
<style type="text/css">
	.st0{fill:#FFFFFF;}
</style>
<g>
	<path class="st0" d="M246.92,44.33c4.94,0.26,9.82,0.48,14.7,0.78c14.16,0.88,28.32,1.8,42.48,2.71
		c9.12,0.59,16.33,8.1,16.29,16.92c-0.05,9.9-7.03,17.81-16.6,17.93c-19.03,0.24-38.06,0.07-57.09,0.07c-0.23,0-0.45-0.11-0.88-0.22
		c0-4.05,0-8.12,0-12.96c-0.49,0.81-0.64,1-0.72,1.21c-2.94,7.83-8.8,11.94-17.12,11.95c-10.32,0.01-20.65-0.26-30.96,0.08
		c-9.16,0.31-17.28-2.91-20.64-14.4c-0.32,0.96-0.55,1.7-0.81,2.44c-2.5,7.22-8.94,11.83-16.55,11.83c-23.23,0-46.45,0-69.68,0
		c-0.95,0-1.91,0-3.06,0c0-13.54,0-26.88,0-40.58c5.09,0.36,10.17,0.73,15.49,1.11c0,7.91,0,15.62,0,23.56
		c1.09,0.05,1.95,0.13,2.8,0.13c17.34,0.01,34.68,0.01,52.01,0c0.56,0,1.13,0,1.69-0.01c2.02-0.04,3.23-1.09,3.32-3.08
		c0.09-2.06-1.17-3.09-3.12-3.27c-3.77-0.35-7.55-0.64-11.33-0.96c-9.64-0.8-19.29-1.54-28.92-2.42c-7.67-0.7-14.01-6.59-14.7-13.75
		c3.31,0.23,6.58,0.42,9.85,0.68c15.99,1.28,31.98,2.53,47.97,3.87c6.29,0.53,10.4,4.32,13.41,9.55c0.44,0.76,0.83,1.54,1.26,2.31
		c0.02,0.03,0.14,0.01,0.49,0.03c0-6.65,0-13.3,0-20.21c5.48,0.39,10.66,0.77,16.1,1.16c0,2.25,0,4.33,0,6.41
		c0,4.84-0.04,9.69,0.02,14.53c0.03,3.15,1.74,5.21,4.82,5.25c9.11,0.12,18.22,0.12,27.33-0.03c3.26-0.05,4.82-2.13,4.9-5.99
		c0.09-4.76,0.03-9.53,0.03-14.29c0-0.96,0-1.93,0-3.34c5.33,0.29,10.48,0.57,15.86,0.86c0,7.59,0,14.91,0,22.4
		c0.81,0.08,1.42,0.19,2.03,0.19c17.82,0.01,35.64,0.01,53.47,0c1.81,0,3.67-0.06,4.34-2.23c0.68-2.21-0.56-3.83-3.14-4.05
		c-8.03-0.68-16.07-1.32-24.1-1.98c-5.7-0.47-11.42-0.86-17.11-1.46C254.29,56.36,247.86,50.58,246.92,44.33z"/>
	<path class="st0" d="M173.43,38.43c-37.83,0-75.49,0-113.87,0c3.33-4.91,6.24-9.51,9.51-13.84c0.83-1.09,2.79-1.84,4.25-1.86
		c9.43-0.17,18.86-0.09,28.29-0.08c0.22,0,0.44,0.14,0.88,0.28c0,4.04,0,8.12,0,12.14c1.83-2.56,3.39-5.26,5.44-7.51
		c3.06-3.37,7.11-4.97,11.68-4.97c17.41-0.03,34.82-0.01,52.23-0.01c0.48,0,0.95,0.08,1.6,0.14
		C173.43,27.94,173.43,33.13,173.43,38.43z"/>
	<path class="st0" d="M229.49,38.4c0-5.26,0-10.33,0-15.59c5.31,0,10.56,0,16.11,0c0,4.27,0,8.48,0,12.29
		c2.01-2.68,3.86-5.67,6.22-8.17c2.75-2.91,6.45-4.31,10.47-4.32c18.94-0.06,37.89-0.03,56.83-0.03c0.38,0,0.76,0.07,1.26,0.13
		c0,5.27,0,10.4,0,15.69C290.12,38.4,259.94,38.4,229.49,38.4z"/>
	<path class="st0" d="M31.27,82.59c2.7-4.19,5.06-7.84,7.42-11.49c6.38-9.89,12.79-19.76,19.11-29.68c0.89-1.39,1.77-2.01,3.48-1.8
		c5.1,0.64,10.22,1.13,15.63,1.71c-0.42,0.8-0.69,1.43-1.05,1.99c-8.11,12.51-16.25,25.01-24.33,37.54
		c-0.78,1.21-1.57,1.79-3.08,1.76C42.92,82.54,37.38,82.59,31.27,82.59z"/>
	<path class="st0" d="M192.39,38.43c-5.33,0-10.52,0-15.89,0c0-5.19,0-10.29,0-15.61c5.22,0,10.47,0,15.89,0
		C192.39,27.91,192.39,33.02,192.39,38.43z"/>
	<path class="st0" d="M48.47,104.92c0-3.9,0-7.8,0-11.8c1.31,0,2.39,0,3.59,0c0,7.83,0,15.53,0,23.18c-2.51,0.9-3.76,0.09-4.47-2.37
		c-1.01-3.5-2.37-6.91-4.12-10.26c0,4.22,0,8.43,0,12.79c-1.34,0-2.41,0-3.62,0c0-7.82,0-15.52,0-23.22
		c2.44-0.72,3.97-0.33,4.72,2.39c0.88,3.17,2.2,6.21,3.33,9.31C48.09,104.93,48.28,104.93,48.47,104.92z"/>
	<path class="st0" d="M206.35,104.82c0-3.85,0-7.7,0-11.69c1.27,0,2.35,0,3.57,0c0,7.77,0,15.48,0,23.22
		c-2.35,0.73-3.71,0.25-4.43-2.35c-1-3.62-2.44-7.12-4.06-10.62c0,4.28,0,8.56,0,13.04c-1.3,0-2.38,0-3.66,0c0-7.63,0-15.32,0-23.04
		c3.26-0.92,3.47-0.81,4.62,2.34c1.13,3.08,2.27,6.15,3.4,9.22C205.97,104.89,206.16,104.86,206.35,104.82z"/>
	<path class="st0" d="M281.47,93.04c2.43,0,4.76-0.19,7.06,0.04c4.47,0.45,6.7,5.78,4.11,9.58c-0.36,0.52-0.82,0.96-0.56,1.3
		c0.66,1.94,1.78,3.86,1.9,5.84c0.27,4.44-2.1,6.69-6.55,6.8c-1.92,0.05-3.84,0.01-5.95,0.01
		C281.47,108.75,281.47,101.07,281.47,93.04z M285.51,113.85c1.69-0.85,3.48-1.17,3.86-2.08c0.54-1.29,0.48-3.23-0.14-4.49
		c-0.42-0.86-2.24-1.03-3.72-1.63C285.51,108.53,285.51,110.67,285.51,113.85z M285.56,103.25c1.49-0.81,2.97-1.14,3.43-2.01
		c0.51-0.96,0.47-2.63-0.06-3.59c-0.46-0.83-1.94-1.08-3.37-1.78C285.56,98.51,285.56,100.41,285.56,103.25z"/>
	<path class="st0" d="M257.77,116.58c0-7.93,0-15.62,0-23.5c2.5,0,4.91-0.2,7.26,0.05c3.11,0.32,4.84,2.38,4.97,5.84
		c0.14,3.86,0.15,7.74,0,11.6c-0.14,3.8-2.13,5.76-5.89,6C262.06,116.69,259.98,116.58,257.77,116.58z M261.95,96.58
		c0,5.49,0,10.98,0,16.47c3.31,0.17,3.94-0.34,4-3.39c0.06-3.3,0.07-6.6,0-9.89C265.88,96.79,265.14,96.23,261.95,96.58z"/>
	<path class="st0" d="M228.63,116.48c0-7.86,0-15.55,0-23.42c2.44,0,4.77-0.15,7.06,0.04c2.18,0.18,4.12,1.11,4.83,3.41
		c0.87,2.86,1.17,5.87-0.95,8.25c-1.09,1.22-1.04,2.09-0.6,3.39c0.91,2.65,1.71,5.35,2.55,8.03c-3.64,0.98-3.89,0.85-4.85-2.42
		c-0.54-1.85-0.99-3.74-1.69-5.54c-0.25-0.64-1.1-1.03-1.68-1.54c-0.25,0.15-0.49,0.29-0.74,0.44c0,3.08,0,6.17,0,9.36
		C231.12,116.48,230.02,116.48,228.63,116.48z M232.79,96.5c0,2.38,0,4.65,0,6.9c3.32,0.21,4.11-0.45,4.16-3.29
		C237.01,97.12,236.16,96.34,232.79,96.5z"/>
	<path class="st0" d="M102.76,92.99c2.1,0,3.94-0.05,5.79,0.01c2.52,0.09,4.95,0.62,5.93,3.3c1.09,2.99,1.3,6.14-0.99,8.66
		c-0.96,1.06-0.95,1.8-0.58,2.91c0.93,2.81,1.82,5.63,2.73,8.48c-3.97,0.56-3.97,0.56-5.02-2.96c-0.5-1.7-0.89-3.44-1.56-5.07
		c-0.27-0.67-1.16-1.08-1.76-1.61c-0.22,0.16-0.45,0.33-0.67,0.49c0,3.04,0,6.07,0,9.25c-1.4,0-2.56,0-3.86,0
		C102.76,108.67,102.76,100.98,102.76,92.99z M106.82,96.48c0,2.36,0,4.64,0,6.89c3.29,0.29,4.1-0.37,4.17-3.2
		C111.06,97.15,110.26,96.38,106.82,96.48z"/>
	<path class="st0" d="M155.37,104.81c0-2.18-0.08-4.36,0.02-6.53c0.15-3.47,2.4-5.52,6-5.61c3.58-0.09,6.1,1.85,6.26,5.3
		c0.2,4.51,0.21,9.04,0.01,13.55c-0.16,3.6-2.57,5.41-6.44,5.3c-3.59-0.1-5.71-2.13-5.84-5.71
		C155.31,109.01,155.37,106.91,155.37,104.81z M163.65,104.66c0-1.93,0-3.85,0-5.78c0-1.44-0.36-2.55-2.11-2.58
		c-1.63-0.02-2.09,1.06-2.11,2.36c-0.05,4.09-0.05,8.19,0.01,12.29c0.02,1.3,0.51,2.38,2.12,2.35c1.74-0.04,2.09-1.18,2.09-2.61
		C163.65,108.67,163.65,106.66,163.65,104.66z"/>
	<path class="st0" d="M137.43,102.51c1.61,0,2.8,0,4.31,0c0-3.1,0-6.19,0-9.4c1.42,0,2.52,0,3.84,0c0,7.72,0,15.48,0,23.37
		c-1.16,0-2.26,0-3.65,0c0-3.31,0-6.65,0-10.19c-1.52,0-2.76,0-4.3,0c0,3.26,0,6.61,0,10.13c-1.45,0-2.6,0-3.95,0
		c0-7.7,0-15.4,0-23.27c1.16,0,2.32,0,3.74,0C137.43,96.19,137.43,99.21,137.43,102.51z"/>
	<path class="st0" d="M101.08,116.5c-1.48,0-2.58,0-3.88,0c-0.29-1.67-0.57-3.31-0.86-5.02c-1.45,0-2.79,0-4.13,0
		c-0.41,1.72-0.54,3.46-1.3,4.87c-0.28,0.51-2.05,0.21-3.55,0.3c1.46-8,2.86-15.65,4.28-23.47c1.61,0,3.18,0,5.11,0
		C98.16,100.75,99.59,108.47,101.08,116.5z M94.38,98.96c-0.13,0.01-0.25,0.01-0.38,0.02c-0.42,2.86-0.83,5.72-1.26,8.63
		c1.21,0,2.03,0,3.03,0C95.28,104.58,94.83,101.77,94.38,98.96z"/>
	<path class="st0" d="M225.11,100.8c-1.36,0-2.46,0-3.73,0c-0.1-0.94,0.05-1.93-0.34-2.61c-0.45-0.77-1.31-1.58-2.13-1.75
		c-0.43-0.09-1.61,1.14-1.63,1.81c-0.15,4.35-0.16,8.71,0.01,13.05c0.03,0.68,1.22,1.84,1.87,1.83c0.67,0,1.6-1.05,1.92-1.84
		c0.33-0.83,0.07-1.89,0.07-3.03c1.34,0,2.5,0,3.66,0c1.46,5.47-1.31,9.02-6.6,8.51c-3.18-0.3-5.11-2.4-5.18-5.87
		c-0.08-3.95-0.05-7.9-0.01-11.86c0.04-4.12,2.33-6.42,6.24-6.38c3.57,0.04,5.8,2.37,5.93,6.23
		C225.22,99.45,225.15,100,225.11,100.8z"/>
	<path class="st0" d="M248.28,112.94c2.34,0,4.48,0,6.81,0c0,1.29,0,2.35,0,3.54c-3.64,0-7.16,0-10.88,0c0-7.71,0-15.4,0-23.29
		c3.39,0,6.86,0,10.47,0c0,1.03,0,1.97,0,3.23c-2.04,0-4.08,0-6.33,0c0,2.18,0,4.04,0,6.12c1.55,0,3.05,0,4.73,0
		c0,1.2,0,2.19,0,3.42c-1.53,0.08-3.09,0.16-4.79,0.25C248.28,108.43,248.28,110.49,248.28,112.94z"/>
	<path class="st0" d="M126.32,108.23c1.3,0,2.47,0,3.61,0c1.02,5.75-1.32,8.86-6.34,8.58c-3.4-0.19-5.43-2.23-5.51-5.78
		c-0.08-4.11-0.08-8.23-0.01-12.34c0.06-3.8,2.35-6,6.08-6.02c3.48-0.02,5.84,2.27,6.06,5.88c0.04,0.64,0.01,1.28,0.01,2.14
		c-1.33,0-2.54,0-3.85,0c-0.12-0.92-0.01-1.9-0.4-2.62s-1.27-1.63-1.93-1.62c-0.63,0.01-1.77,1.07-1.79,1.7
		c-0.16,4.43-0.17,8.87,0.01,13.3c0.03,0.64,1.26,1.6,2.05,1.72c0.51,0.08,1.47-1,1.75-1.74
		C126.39,110.49,126.24,109.38,126.32,108.23z"/>
	<path class="st0" d="M72.69,98.29c-1.82,0.4-3.51,1.28-4.47-1.23c-0.16-0.42-1.5-0.77-2.07-0.56s-1.33,1.33-1.19,1.78
		c0.42,1.31,1.09,2.63,1.98,3.67c1.51,1.76,3.46,3.16,4.86,4.99c1.69,2.22,1.79,4.83,0.33,7.28c-1.44,2.4-3.82,2.77-6.34,2.54
		c-2.89-0.27-4.62-2.36-5.15-6.31c1.12-0.22,2.27-0.45,3.58-0.71c0.28,0.81,0.31,1.71,0.77,2.08c0.77,0.62,1.81,0.9,2.74,1.33
		c0.43-0.99,1.47-2.31,1.16-2.92c-0.83-1.58-2.27-2.83-3.43-4.24c-1.41-1.72-3.22-3.27-4.07-5.24c-1.53-3.54,0.36-7.06,3.71-7.83
		C69.31,91.95,72.06,93.8,72.69,98.29z"/>
	<path class="st0" d="M79.49,102.66c1.8,0,3.31,0,4.95,0c0,1.11,0,2.05,0,3.28c-1.53,0-3.09,0-4.86,0c0,2.41,0,4.52,0,6.91
		c2.2,0,4.41,0,6.82,0c0,1.33,0,2.39,0,3.61c-3.62,0-7.2,0-10.94,0c0-7.82,0-15.51,0-23.34c3.56,0,6.99,0,10.56,0
		c0,1.09,0,2.09,0,3.41c-2.19,0-4.32,0-6.52,0C79.49,98.67,79.49,100.5,79.49,102.66z"/>
	<path class="st0" d="M319.31,96.58c-2.25,0-4.32,0-6.49,0c0,2.05,0,3.87,0,5.93c1.61,0,3.19,0,4.94,0c0,1.23,0,2.22,0,3.48
		c-1.55,0-3.12,0-4.87,0c0,2.38,0,4.5,0,6.93c2.29,0,4.58,0,6.96,0c0,1.33,0,2.35,0,3.53c-3.66,0-7.24,0-10.99,0
		c0-7.76,0-15.45,0-23.31c3.45,0,6.87,0,10.46,0C319.31,94.17,319.31,95.17,319.31,96.58z"/>
	<path class="st0" d="M175.01,96.52c0,2.22,0,3.98,0,5.96c1.73,0.08,3.37,0.16,5.13,0.25c0,1.12,0,2.12,0,3.34c-1.72,0-3.3,0-5.2,0
		c0,3.57,0,6.91,0,10.4c-1.48,0-2.64,0-3.96,0c0-7.78,0-15.49,0-23.33c3.65,0,7.23,0,10.96,0c0,1.09,0,2.09,0,3.39
		C179.65,96.52,177.44,96.52,175.01,96.52z"/>
	<path class="st0" d="M296.78,93.1c1.37,0,2.47,0,3.84,0c0,6.59,0,13.08,0,19.8c2.16,0,4.06,0,6.14,0c0,1.31,0,2.37,0,3.58
		c-3.33,0-6.59,0-9.98,0C296.78,108.65,296.78,100.96,296.78,93.1z"/>
	<path class="st0" d="M36,116.49c-1.32,0-2.49,0-3.83,0c0-7.82,0-15.52,0-23.36c1.27,0,2.45,0,3.83,0C36,100.82,36,108.51,36,116.49
		z"/>
	<path class="st0" d="M277.55,116.48c-1.25,0-2.42,0-3.77,0c0-7.78,0-15.47,0-23.33c1.21,0,2.38,0,3.77,0
		C277.55,100.86,277.55,108.6,277.55,116.48z"/>
	<path class="st0" d="M190.04,93.06c1.4,0,2.52,0,3.81,0c0,7.77,0,15.46,0,23.35c-1.21,0-2.43,0-3.81,0
		C190.04,108.65,190.04,100.96,190.04,93.06z"/>
	<path class="st0" d="M285.51,113.85c0-3.18,0-5.32,0-8.2c1.48,0.59,3.29,0.77,3.72,1.63c0.62,1.26,0.68,3.19,0.14,4.49
		C288.99,112.67,287.21,112.99,285.51,113.85z"/>
	<path class="st0" d="M285.56,103.25c0-2.84,0-4.74,0-7.38c1.43,0.7,2.91,0.95,3.37,1.78c0.53,0.96,0.56,2.63,0.06,3.59
		C288.52,102.11,287.04,102.43,285.56,103.25z"/>
	<path class="st0" d="M261.95,96.58c3.19-0.35,3.93,0.21,3.99,3.19c0.07,3.3,0.06,6.6,0,9.89c-0.05,3.04-0.69,3.56-4,3.39
		C261.95,107.56,261.95,102.07,261.95,96.58z"/>
	<path class="st0" d="M232.79,96.5c3.37-0.16,4.21,0.62,4.16,3.61c-0.05,2.84-0.84,3.5-4.16,3.29
		C232.79,101.15,232.79,98.88,232.79,96.5z"/>
	<path class="st0" d="M106.82,96.48c3.44-0.1,4.24,0.67,4.17,3.7c-0.06,2.83-0.88,3.49-4.17,3.2
		C106.82,101.12,106.82,98.84,106.82,96.48z"/>
	<path class="st0" d="M163.65,104.66c0,2.01,0,4.02,0,6.02c0,1.43-0.35,2.57-2.09,2.61c-1.61,0.03-2.11-1.04-2.12-2.35
		c-0.06-4.09-0.06-8.19-0.01-12.29c0.02-1.29,0.48-2.38,2.11-2.36c1.75,0.02,2.11,1.14,2.11,2.58
		C163.65,100.8,163.65,102.73,163.65,104.66z"/>
	<path class="st0" d="M94.38,98.96c0.45,2.81,0.91,5.62,1.4,8.65c-1,0-1.82,0-3.03,0c0.42-2.91,0.84-5.77,1.26-8.63
		C94.13,98.97,94.25,98.96,94.38,98.96z"/>
</g>
</svg>
