<?xml version="1.0" encoding="utf-8"?>
<!-- Generator: Adobe Illustrator 26.0.1, SVG Export Plug-In . SVG Version: 6.00 Build 0)  -->
<svg version="1.1" id="Layer_1" xmlns="http://www.w3.org/2000/svg" xmlns:xlink="http://www.w3.org/1999/xlink" x="0px" y="0px"
	 viewBox="0 0 148.41 141.38" style="enable-background:new 0 0 148.41 141.38;" xml:space="preserve">
<style type="text/css">
	.st0{fill:#FFFFFF;}
</style>
<g>
	<polygon class="st0" points="40.04,96.35 33.26,102.15 121.39,102.15 114.85,96.35 112.74,96.35 118.29,101.14 36.29,101.14 
		42.04,96.35 	"/>
	<path class="st0" d="M32.54,112.12h89.5c2.9,0,5.25-2.35,5.25-5.25c0-2.12-1.26-3.93-3.06-4.76l-7.64-6.77
		c3.11-0.34,5.54-2.94,5.54-6.15V41.94c0-3.43-2.78-6.22-6.21-6.22H38.65c-3.43,0-6.21,2.79-6.21,6.22V89.2
		c0,3.29,2.56,5.95,5.8,6.17l-7.86,6.73c-0.91,0.41-1.68,1.07-2.22,1.9l-0.07,0.06h0.04c-0.52,0.81-0.83,1.78-0.83,2.82
		C27.29,109.77,29.64,112.12,32.54,112.12z M34.59,108.6c-0.57,0-1.03-0.46-1.03-1.03c0-0.57,0.46-1.03,1.03-1.03
		c0.58,0,1.04,0.46,1.04,1.03C35.62,108.13,35.16,108.6,34.59,108.6z M38.7,108.6c-0.57,0-1.03-0.46-1.03-1.03
		c0-0.57,0.46-1.03,1.03-1.03c0.57,0,1.04,0.46,1.04,1.03C39.74,108.13,39.27,108.6,38.7,108.6z M43.11,108.6
		c-0.57,0-1.03-0.46-1.03-1.03c0-0.57,0.46-1.03,1.03-1.03c0.58,0,1.04,0.46,1.04,1.03C44.14,108.13,43.68,108.6,43.11,108.6z
		 M81,108.6h-8.74c-0.57,0-1.03-0.46-1.03-1.03c0-0.57,0.46-1.03,1.03-1.03H81c0.57,0,1.04,0.46,1.04,1.03
		C82.05,108.13,81.57,108.6,81,108.6z M77.29,39.4c0.64,0,1.14,0.51,1.14,1.14c0,0.63-0.5,1.14-1.14,1.14
		c-0.63,0-1.13-0.51-1.13-1.14C76.16,39.91,76.66,39.4,77.29,39.4z M38.09,86.15V45h78.4v41.15H38.09z M40.04,96.35h2l-5.74,4.8h82
		l-5.55-4.8h2.1l6.55,5.8H33.26L40.04,96.35z"/>
</g>
</svg>
