<?xml version="1.0" encoding="utf-8"?>
<!-- Generator: Adobe Illustrator 26.0.1, SVG Export Plug-In . SVG Version: 6.00 Build 0)  -->
<svg version="1.1" id="Layer_1" xmlns="http://www.w3.org/2000/svg" xmlns:xlink="http://www.w3.org/1999/xlink" x="0px" y="0px"
	 viewBox="0 0 150.63 204.11" style="enable-background:new 0 0 150.63 204.11;" xml:space="preserve">
<style type="text/css">
	.st0{fill:#FFFFFF;}
</style>
<g>
	<g>
		<path class="st0" d="M77.51,159.5c-2.88,0-5.21,2.33-5.21,5.21s2.33,5.21,5.21,5.21s5.21-2.33,5.21-5.21
			C82.71,161.83,80.38,159.5,77.51,159.5z"/>
		<path class="st0" d="M77.51,157.96c-1.84,0-3.5,0.74-4.7,1.94s-1.95,2.86-1.95,4.7s0.74,3.5,1.95,4.7c1.2,1.2,2.86,1.95,4.7,1.95
			c1.83,0,3.49-0.74,4.7-1.95c1.2-1.2,1.95-2.86,1.95-4.7s-0.74-3.5-1.95-4.7C81,158.7,79.34,157.96,77.51,157.96z M77.51,169.91
			c-2.88,0-5.21-2.33-5.21-5.21s2.33-5.21,5.21-5.21s5.21,2.33,5.21,5.21C82.71,167.58,80.38,169.91,77.51,169.91z"/>
		<path class="st0" d="M117.09,26.91H37.92c-5.75,0-10.41,4.66-10.41,10.41v129.47c0,5.75,4.66,10.41,10.41,10.41h79.17
			c5.75,0,10.41-4.66,10.41-10.41V37.32C127.51,31.57,122.84,26.91,117.09,26.91z M77.51,30.41c0.8,0,1.46,0.65,1.46,1.45
			c0,0.81-0.65,1.46-1.46,1.46s-1.46-0.65-1.46-1.46C76.05,31.06,76.7,30.41,77.51,30.41z M72.05,36.3h10.92
			c0.8,0,1.45,0.65,1.45,1.45s-0.65,1.45-1.45,1.45H72.05c-0.8,0-1.45-0.65-1.45-1.45S71.25,36.3,72.05,36.3z M67.17,36.62
			c0.63,0,1.13,0.51,1.13,1.13c0,0.62-0.51,1.13-1.13,1.13c-0.63,0-1.13-0.51-1.13-1.13C66.04,37.12,66.54,36.62,67.17,36.62z
			 M77.51,171.9c-4.03,0-7.29-3.26-7.29-7.29s3.27-7.29,7.29-7.29c4.03,0,7.29,3.26,7.29,7.29C84.8,168.63,81.53,171.9,77.51,171.9z
			 M114.65,153.95H40.37V43.91h74.28C114.65,43.91,114.65,153.95,114.65,153.95z"/>
	</g>
</g>
</svg>
