<?xml version="1.0" encoding="utf-8"?>
<!-- Generator: Adobe Illustrator 26.0.1, SVG Export Plug-In . SVG Version: 6.00 Build 0)  -->
<svg version="1.1" id="Layer_1" xmlns="http://www.w3.org/2000/svg" xmlns:xlink="http://www.w3.org/1999/xlink" x="0px" y="0px"
	 viewBox="0 0 248.76 226.95" style="enable-background:new 0 0 248.76 226.95;" xml:space="preserve">
<style type="text/css">
	.st0{fill:#FFFFFF;}
</style>
<g>
	<path class="st0" d="M131.97,100.52c25.33-12.86,50.94-25.01,77.48-35.62c-0.42,1.12-0.75,2.08-1.14,3.02
		c-6.84,16.74-15.36,32.53-26.46,46.85c-4.04,5.21-8.46,10.1-13.94,13.86c-1.98,1.36-4.17,2.45-6.36,3.46
		c-2.32,1.07-4.87,0.9-7.33,0.69c-4.43-0.4-8.87-0.83-13.26-1.55c-12.2-2.01-24.16-5.06-35.9-8.97c-5.65-1.88-11.25-3.89-16.6-6.54
		c-1.79-0.89-3.48-1.97-5.31-3.01c0.22-0.21,0.34-0.35,0.48-0.45c21.96-15.4,44.22-30.36,67.49-43.74
		c8.69-4.99,17.53-9.7,26.87-13.42c9.57-3.81,19.47-6.46,29.6-8.27c2.79-0.5,5.61-0.88,8.41-1.3c0.41-0.06,0.82-0.06,1.39-0.09
		c-0.17,0.79-0.28,1.49-0.49,2.16c-0.62,2.05-1.63,3.9-2.91,5.61c-0.9,1.21-2.02,2.06-3.45,2.65
		c-19.31,7.86-38.34,16.34-56.95,25.74c-15.34,7.74-30.41,15.99-44.72,25.53c-1.92,1.28-3.79,2.64-5.68,3.97
		c-0.24,0.17-0.46,0.36-0.85,0.66c1.97,0.7,3.75,1.37,5.56,1.99c7.65,2.6,15.4,4.79,23.38,6.12c5.48,0.91,10.98,1.45,16.54,0.78
		c4.08-0.49,7.62-2.17,10.85-4.62c4.53-3.45,8.12-7.77,11.36-12.4c3.71-5.31,6.85-10.95,9.55-16.84c0.09-0.19,0.15-0.4,0.29-0.8
		C163.8,90.87,147.89,95.7,131.97,100.52z"/>
	<path class="st0" d="M45.19,81.34c1.94,0.97,3.67,1.84,5.4,2.71c6.09,3.06,12.11,6.27,18.57,8.53c2.1,0.74,4.23,1.38,6.51,1.28
		c0.94-0.04,1.68-0.38,2.36-1.05c13.36-13.08,26.62-26.27,40.67-38.62c3.83-3.36,7.83-6.54,11.81-9.72
		c6.46-5.16,13.69-8.73,21.75-10.74c8.57-2.14,17.17-4.04,25.94-5.12c7.95-0.98,15.93-1.32,23.93-0.99c1.97,0.08,3.94,0.3,5.91,0.47
		c0.16,0.01,0.31,0.07,0.69,0.16c-2.06,0.55-3.9,1.02-5.72,1.55c-10.6,3.03-20.76,7.19-30.65,12.03c-19.1,9.34-36.92,20.78-54,33.38
		c-10.67,7.87-21.15,16.01-31.67,24.09c-2.85,2.19-5.56,4.58-7.79,7.43c-0.93,1.19-1.72,2.53-2.37,3.9
		c-0.68,1.44-0.48,2.93,0.31,4.33c2.26,4,5.13,7.56,8.09,11.05c2.33,2.74,4.76,5.39,7.14,8.08c0.13,0.14,0.24,0.3,0.51,0.63
		c-0.42-0.15-0.64-0.21-0.84-0.31c-7.38-3.67-14.19-8.16-20.04-14.02c-2.99-3-5.41-6.44-7.71-9.97C57.83,101,51.73,91.54,45.6,82.1
		C45.49,81.93,45.4,81.74,45.19,81.34z"/>
	<path class="st0" d="M58.52,110.62c-3.04-0.87-6.11-1.67-9.13-2.61c-5.35-1.66-10.58-3.6-15.53-6.27c-3.63-1.96-6.09-4.93-8.1-8.43
		c-3.27-5.69-5.89-11.67-8.28-17.77c-0.04-0.1-0.04-0.21-0.08-0.45C30.85,87.34,44.12,99.6,58.52,110.62z"/>
	<path class="st0" d="M46.97,180.73c-4.26-4.48-8.36-8.78-12.6-13.24c2.71,0,5.19,0,7.77,0c0-1.75,0.03-3.42-0.03-5.08
		c-0.01-0.23-0.45-0.63-0.69-0.63c-2.89-0.04-5.78-0.03-8.79-0.03c0,4.52,0,8.98,0,13.71c-1.27-1.37-2.3-2.61-3.46-3.7
		c-1.05-0.99-1.45-2.07-1.38-3.53c0.12-2.59,0.03-5.18,0.03-7.77c0-0.3,0-0.6,0-0.95c0.32-0.02,0.56-0.05,0.8-0.05
		c5.65,0,11.31,0,16.96,0c1.12,0,1.34,0.21,1.34,1.29c0,2.93,0,5.85,0,8.78c0,0.22-0.02,0.44-0.04,0.75c-1.51,0-3,0-4.7,0
		c0.34,0.41,0.54,0.66,0.76,0.89c1.19,1.29,2.4,2.56,3.56,3.88c0.26,0.3,0.43,0.77,0.45,1.17C47,177.64,46.97,179.06,46.97,180.73z"
		/>
	<path class="st0" d="M124.18,165.5c0,3.07,0,6.13,0,9.25c-5.55,0-11.1,0-16.71,0c0-5.06,0-10.12,0-15.25
		c0.28-0.02,0.55-0.04,0.82-0.04c4.32,0,8.64,0,12.95,0c1.31,0,1.64,0.33,1.65,1.62c0.01,1.12,0.04,2.23-0.01,3.35
		c-0.03,0.71,0.1,1.15,0.93,1.02C123.92,165.42,124.03,165.47,124.18,165.5z M112.03,167.66c0,1.65,0,3.22,0,4.81
		c2.56,0,5.07,0,7.59,0c0-1.64,0-3.21,0-4.81C117.07,167.66,114.6,167.66,112.03,167.66z M112.03,161.75c0,1.25,0,2.38,0,3.6
		c1.74,0,3.43,0,5.11,0c2.84,0,2.84,0,2.55-2.87c-0.01-0.08,0.01-0.2-0.04-0.24c-0.18-0.17-0.38-0.46-0.57-0.47
		C116.75,161.74,114.42,161.75,112.03,161.75z"/>
	<path class="st0" d="M152.79,192.33c1.98,2.26,3.8,4.34,5.75,6.58c-1.86,0-3.51,0.01-5.17-0.01c-0.17,0-0.37-0.12-0.49-0.26
		c-2.58-2.93-5.15-5.86-7.72-8.79c-0.05-0.05-0.06-0.14-0.13-0.33c1.2,0,2.32,0,3.45,0c1.11,0,2.23,0.03,3.34-0.03
		c0.22-0.01,0.59-0.32,0.61-0.52c0.07-0.8,0.04-1.61,0.01-2.42c-0.02-0.41-0.14-0.75-0.69-0.74c-2.53,0.02-5.07,0.02-7.6,0.03
		c-0.05,0-0.1,0.04-0.24,0.11c0,4.26,0,8.56,0,12.92c-1.56,0-3.03,0-4.55,0c0-5.07,0-10.13,0-15.29c0.27-0.01,0.56-0.04,0.85-0.04
		c5.04,0,10.08,0,15.12,0c1.16,0,1.6,0.41,1.61,1.6c0.02,2.17-0.01,4.35,0.01,6.52c0,0.5-0.15,0.7-0.67,0.68
		C155.21,192.31,154.12,192.33,152.79,192.33z"/>
	<path class="st0" d="M96.8,198.87c-1.54,0-2.98,0-4.51,0c0-2.15,0-4.25,0-6.43c-2.8,0-5.5,0-8.3,0c0,2.14,0,4.24,0,6.41
		c-1.55,0-3.01,0-4.53,0c0-5.07,0-10.13,0-15.26c0.24-0.02,0.48-0.05,0.72-0.05c5.07,0,10.14,0.01,15.21,0.02
		c0.87,0,1.39,0.38,1.39,1.19C96.82,189.43,96.8,194.11,96.8,198.87z M84.13,190.01c2.71,0,5.33,0,8.01,0c0-1.18,0-2.29,0-3.41
		c0-0.55-0.24-0.81-0.81-0.8c-1.2,0.02-2.39,0.01-3.59,0.01c-1.19,0-2.38,0-3.61,0C84.13,187.26,84.13,188.61,84.13,190.01z"/>
	<path class="st0" d="M192.83,174.81c-0.29,0.02-0.56,0.05-0.83,0.05c-3.4,0-6.8,0.02-10.19-0.02c-0.39,0-0.88-0.19-1.14-0.47
		c-1.36-1.47-2.67-2.99-3.98-4.51c-0.19-0.22-0.41-0.51-0.41-0.77c-0.03-3.15-0.02-6.3-0.02-9.53c0.28-0.03,0.51-0.07,0.75-0.07
		c4.82,0,9.64-0.01,14.46,0c1.02,0,1.44,0.36,1.44,1.3c0.01,4.52,0.01,9.03,0,13.55C192.9,174.48,192.86,174.61,192.83,174.81z
		 M180.8,161.79c0,2.14-0.02,4.2,0.02,6.26c0,0.26,0.23,0.56,0.42,0.78c0.93,1.11,1.87,2.21,2.82,3.31
		c0.16,0.18,0.37,0.44,0.56,0.45c1.21,0.04,2.43,0.02,3.68,0.02c0-3.66,0-7.21,0-10.81C185.8,161.79,183.36,161.79,180.8,161.79z"/>
	<path class="st0" d="M117.7,198.91c-1.52,0-2.95,0-4.49,0c0-2.86,0-5.69,0-8.72c-0.38,0.21-0.61,0.32-0.82,0.47
		c-1.08,0.73-2.18,1.45-3.24,2.22c-0.43,0.32-0.74,0.32-1.17,0.01c-1.26-0.9-2.56-1.75-3.97-2.71c0,2.97,0,5.79,0,8.69
		c-1.57,0-3.05,0-4.6,0c0-5.04,0-10.1,0-15.24c0.22,0.12,0.43,0.23,0.62,0.36c2.61,1.75,5.23,3.49,7.82,5.27
		c0.52,0.35,0.86,0.37,1.39,0.01c2.52-1.74,5.07-3.44,7.61-5.15c0.25-0.17,0.5-0.31,0.84-0.52
		C117.7,188.75,117.7,193.78,117.7,198.91z"/>
	<path class="st0" d="M88.01,174.9c0-5.16,0-10.25,0-15.39c1.48,0,2.93,0,4.49,0c0,4.37,0,8.71,0,13.11c2.78,0,5.47,0,8.27,0
		c0-4.33,0-8.67,0-13.06c1.55,0,2.98,0,4.48,0c0,5.11,0,10.22,0,15.35C99.51,174.9,93.79,174.9,88.01,174.9z"/>
	<path class="st0" d="M71.81,196.58c0-2.01,0-3.97,0-5.97c1.56,0,3.02,0,4.54,0c0,2.75,0,5.47,0,8.25c-5.78,0-11.56,0-17.4,0
		c0-5.06,0-10.14,0-15.27c5.95,0,11.89,0,17.83,0c0.05,0.06,0.09,0.11,0.14,0.17c-0.72,0.67-1.42,1.38-2.18,2.01
		c-0.2,0.16-0.58,0.13-0.88,0.13c-3.09,0.01-6.18,0.01-9.27,0.01c-0.33,0-0.65,0-1.02,0c0,3.62,0,7.12,0,10.68
		C66.28,196.58,68.96,196.58,71.81,196.58z"/>
	<path class="st0" d="M159.03,196.59c4.52,0,8.8,0,13.15,0c0-1.56,0-3.08,0-4.67c-4.18,0-8.34,0-12.57,0c0-2.8,0-5.52,0-8.31
		c5.74,0,11.51,0,17.42,0c-0.64,0.72-1.19,1.4-1.82,2.01c-0.18,0.17-0.56,0.18-0.85,0.19c-3.06,0.01-6.13,0.01-9.19,0.01
		c-0.3,0-0.6,0-0.96,0c0,1.29,0,2.5,0,3.8c0.36,0,0.69,0,1.02,0c3.59,0,7.19,0.01,10.78-0.01c0.63,0,0.88,0.13,0.87,0.83
		c-0.04,2.78-0.02,5.57-0.02,8.49c-0.39,0-0.71,0-1.03,0c-4.35,0-8.69-0.01-13.04,0.01c-0.68,0-1.23-0.14-1.73-0.62
		C160.48,197.76,159.83,197.27,159.03,196.59z"/>
	<path class="st0" d="M69.09,159.46c1.23,0,2.37,0,3.5,0c3.87,0,7.74,0,11.61,0c1.45,0,1.74,0.3,1.74,1.77c0,2.87,0,5.73,0,8.71
		c-4.13,0-8.2,0-12.35,0c0,1.66,0,3.2,0,4.82c-1.53,0-2.99,0-4.5,0C69.09,169.68,69.09,164.62,69.09,159.46z M73.59,167.58
		c2.66,0,5.23,0,7.85,0c0-1.77,0-3.46,0-5.16c0-0.55-0.3-0.69-0.8-0.69c-2.03,0.02-4.06,0.01-6.09,0.01c-0.32,0-0.64,0-0.96,0
		C73.59,163.77,73.59,165.66,73.59,167.58z"/>
	<path class="st0" d="M49.74,174.74c0-5.07,0-10.13,0-15.24c5.68,0,11.32,0,17.15,0c-0.79,0.77-1.46,1.46-2.18,2.09
		c-0.17,0.15-0.52,0.15-0.78,0.15c-2.87,0.01-5.74,0.01-8.61,0.01c-0.3,0-0.6,0-1.02,0c0,1.31-0.02,2.55,0.03,3.79
		c0.01,0.14,0.48,0.37,0.74,0.37c3.15,0.03,6.3,0.02,9.45,0.02c0.41,0,0.83,0,1.3,0c0,0.81,0,1.55,0,2.4c-3.82,0-7.62,0-11.47,0
		c0,1.46,0,2.82,0,4.3c0.35,0,0.67,0,1,0c2.76,0,5.52,0.03,8.27-0.02c0.77-0.01,1.32,0.2,1.81,0.77c0.38,0.44,0.86,0.79,1.3,1.18
		c-0.04,0.06-0.07,0.13-0.11,0.19C61.01,174.74,55.4,174.74,49.74,174.74z"/>
	<path class="st0" d="M120.44,183.56c5.68,0,11.28,0,17.1,0c-1.19,1.03-1.77,2.41-3.62,2.29c-2.66-0.17-5.35-0.04-8.02-0.04
		c-0.3,0-0.6,0.02-0.94,0.04c0,1.4,0,2.72,0,4.15c3.87,0,7.7,0,11.59,0c0,0.84,0,1.57,0,2.42c-3.85,0-7.68,0-11.57,0
		c0,1.45,0,2.8,0,4.25c0.32,0.02,0.64,0.05,0.96,0.05c2.73,0,5.46,0.04,8.19-0.02c0.85-0.02,1.49,0.19,2.04,0.84
		c0.37,0.44,0.83,0.8,1.4,1.35c-5.86,0-11.46,0-17.14,0C120.44,193.8,120.44,188.72,120.44,183.56z"/>
	<path class="st0" d="M151.52,174.82c0-5.16,0-10.19,0-15.28c5.67,0,11.27,0,17.05,0c-0.75,0.76-1.38,1.44-2.07,2.06
		c-0.17,0.15-0.52,0.13-0.79,0.13c-2.87,0.01-5.74,0.01-8.61,0.01c-0.3,0-0.61,0-1,0c-0.02,0.32-0.05,0.58-0.05,0.85
		c0,3.04,0.02,6.08-0.02,9.12c-0.01,0.77,0.27,0.92,0.97,0.92c3.48-0.03,6.96-0.01,10.45-0.01c0.3,0,0.61,0,0.91,0
		c-0.91,0.97-1.4,2.29-3.15,2.24c-4.2-0.13-8.41-0.04-12.62-0.04C152.26,174.82,151.93,174.82,151.52,174.82z"/>
	<path class="st0" d="M195.69,174.78c0-5.12,0-10.15,0-15.24c5.57,0,11.09,0,16.78,0c-0.68,0.74-1.25,1.42-1.88,2.02
		c-0.18,0.17-0.56,0.18-0.85,0.18c-2.84,0.01-5.68,0.01-8.52,0.01c-0.3,0-0.6,0-1.02,0c0,1.01-0.04,1.96,0.04,2.89
		c0.01,0.17,0.5,0.43,0.78,0.43c3.29,0.03,6.57,0.02,9.86,0.02c0.29,0,0.59,0,1.1,0c-0.68,0.8-1.19,1.46-1.77,2.04
		c-0.17,0.17-0.56,0.19-0.85,0.19c-2.73,0.01-5.46,0.03-8.19-0.01c-0.75-0.01-1.02,0.18-1,0.97c0.05,2.14,0.02,4.28,0.02,6.5
		C198.66,174.78,197.21,174.78,195.69,174.78z"/>
	<path class="st0" d="M126.82,159.55c1.46,0,2.9,0,4.42,0c0.02,0.34,0.05,0.66,0.05,0.99c0,3.73,0.02,7.47-0.01,11.2
		c-0.01,0.72,0.18,0.95,0.93,0.94c3.34-0.04,6.68-0.02,10.25-0.02c-1.09,1.06-1.61,2.33-3.42,2.25c-3.72-0.16-7.46-0.05-11.19-0.05
		c-0.33,0-0.65,0-1.03,0C126.82,169.71,126.82,164.65,126.82,159.55z"/>
	<path class="st0" d="M144.39,159.49c1.37,0,2.67,0.01,3.98-0.01c0.54-0.01,0.56,0.31,0.56,0.7c-0.01,2.09,0,4.18,0,6.27
		c0,2.51-0.03,5.02,0.02,7.53c0.02,0.8-0.25,0.99-1,0.96c-1.16-0.06-2.33-0.01-3.56-0.01C144.39,169.78,144.39,164.7,144.39,159.49z
		"/>
</g>
</svg>
