<?xml version="1.0" encoding="utf-8"?>
<!-- Generator: Adobe Illustrator 26.0.1, SVG Export Plug-In . SVG Version: 6.00 Build 0)  -->
<svg version="1.1" id="Layer_1" xmlns="http://www.w3.org/2000/svg" xmlns:xlink="http://www.w3.org/1999/xlink" x="0px" y="0px"
	 viewBox="0 0 268.29 234.18" style="enable-background:new 0 0 268.29 234.18;" xml:space="preserve">
<style type="text/css">
	.st0{fill:#FFFFFF;}
</style>
<g>
	<path class="st0" d="M234.36,117.14c0.14,55.14-44.96,100-100.04,99.97c-54.62-0.03-100.16-44.42-99.96-100.38
		c0.2-55.51,45.48-99.7,100.13-99.64C189.58,17.13,234.53,62.03,234.36,117.14z M134.32,206.59c49.19-0.04,89.51-39.63,89.53-89.41
		c0.03-50.3-40.6-89.02-88.01-89.52c-25.13-0.26-46.79,8.42-64.58,26.11c-17.36,17.27-26.14,38.39-26.34,62.9
		C44.5,165.8,84.39,206.45,134.32,206.59z"/>
	<path class="st0" d="M146.89,95.01c4.95,0,9.71,0,14.57,0c0.03,0.52,0.08,0.98,0.08,1.44c0,9.07,0.01,18.15,0,27.22
		c0,2.1,0.13,1.73,1.77,1.74c4,0.02,8,0,12,0c0.36,0,0.73,0,1.21,0c0.03,0.44,0.09,0.79,0.09,1.14c0.01,3.36,0.01,6.72,0,10.08
		c0,1.11-0.01,1.12-1.12,1.12c-8.17,0-16.34,0-24.51,0c-1.01,0-2.02,0-3.03,0c-0.3,0-0.59-0.03-0.99-0.06
		c-0.03-0.44-0.07-0.83-0.08-1.22c-0.01-4.1,0-8.2-0.01-12.3c0-0.39-0.03-0.78-0.06-1.4c-0.48,0.3-0.83,0.47-1.12,0.7
		c-3.17,2.49-6.34,4.98-9.51,7.48c-4.46,3.51-8.92,7.03-13.39,10.54c-0.82,0.65-0.83,0.65-1.69-0.03
		c-6.81-5.36-13.63-10.72-20.44-16.09c-0.39-0.31-0.79-0.6-1.28-0.97c-0.2,0.34-0.36,0.58-0.49,0.83
		c-3.02,6.17-7.88,10.09-14.52,11.79c-1.16,0.3-2.38,0.52-3.57,0.53c-6.62,0.07-13.24,0.06-19.87,0.08c-0.26,0-0.53-0.05-0.74-0.07
		c-0.07-0.08-0.09-0.1-0.11-0.13c-0.02-0.03-0.05-0.05-0.06-0.08c-0.03-0.16-0.07-0.33-0.07-0.49c0-13.81,0-27.63,0.01-41.44
		c0-0.1,0.05-0.19,0.11-0.4c0.29-0.03,0.61-0.09,0.93-0.09c6.25,0,12.51-0.05,18.76,0.02c6.17,0.07,11.33,2.51,15.53,7
		c1.46,1.56,2.62,3.32,3.52,5.26c0.14,0.3,0.3,0.58,0.53,1c2.01-1.47,3.84-2.98,5.71-4.44c1.88-1.47,3.75-2.95,5.63-4.42
		c1.88-1.47,3.75-2.95,5.63-4.42c1.87-1.47,3.74-2.94,5.66-4.44c2.7,2.12,5.33,4.2,8.08,6.35c-2.26,1.93-4.57,3.64-6.82,5.43
		c-2.29,1.82-4.6,3.61-6.9,5.42c-2.27,1.78-4.53,3.56-6.84,5.39c0.24,0.26,0.37,0.45,0.54,0.59c0.95,0.75,1.9,1.5,2.86,2.24
		c0.71,0.54,0.72,0.54,1.46-0.04c5.29-4.15,10.57-8.3,15.86-12.45c1.34-1.06,2.69-2.11,4.1-3.22c2.7,2.11,5.35,4.19,8.13,6.37
		c-6.93,5.46-13.73,10.81-20.62,16.24c0.31,0.3,0.5,0.52,0.73,0.7c0.89,0.71,1.79,1.42,2.7,2.12c0.71,0.55,0.72,0.55,1.46-0.03
		c3.2-2.51,6.4-5.02,9.59-7.54c3.25-2.56,6.49-5.13,9.76-7.66c0.6-0.46,0.83-0.95,0.83-1.7c-0.03-4.13-0.01-8.27-0.01-12.4
		C146.89,95.91,146.89,95.51,146.89,95.01z M74.14,116.27c0,2.79-0.01,5.58,0,8.37c0,0.91,0.07,0.99,0.98,0.97
		c1.51-0.03,3.03-0.03,4.52-0.2c3.69-0.43,6.37-2.88,7.22-6.49c0.34-1.45,0.38-2.91,0.16-4.4c-0.55-3.66-2.86-6.27-6.44-7.18
		c-1.75-0.44-3.53-0.41-5.31-0.39c-1.09,0.01-1.13,0.05-1.13,1.15C74.13,110.82,74.14,113.55,74.14,116.27z"/>
	<path class="st0" d="M195.59,94.93c0,0.63,0,1.06,0,1.49c0,9.14,0,18.28,0,27.42c0,1.79,0.07,1.57,1.62,1.57
		c3.97,0.01,7.93,0,11.9,0c0.27,0,0.54,0.01,0.81,0c0.41-0.01,0.63,0.18,0.64,0.6c0,0.2,0.01,0.4,0.01,0.6c0,3.33,0,6.65,0,9.98
		c0,0.33-0.04,0.66-0.06,1.07c-0.35,0.03-0.64,0.09-0.93,0.09c-9.21,0-18.41,0-27.62,0c-0.97,0-1.02-0.04-1.02-1.04
		c-0.01-4.1,0-8.2,0-12.3c0-9.31,0-18.61,0-27.92c0-1.74-0.01-1.57,1.61-1.57c3.9,0,7.8,0,11.69,0
		C194.62,94.93,195.01,94.93,195.59,94.93z"/>
</g>
</svg>
