<?xml version="1.0" encoding="utf-8"?>
<!-- Generator: Adobe Illustrator 26.0.1, SVG Export Plug-In . SVG Version: 6.00 Build 0)  -->
<svg version="1.1" id="Layer_1" xmlns="http://www.w3.org/2000/svg" xmlns:xlink="http://www.w3.org/1999/xlink" x="0px" y="0px"
	 viewBox="0 0 180 82" style="enable-background:new 0 0 180 82;" xml:space="preserve">
<style type="text/css">
	.st0{fill:url(#SVGID_1_);}
	.st1{fill:#00FAB2;}
	.st2{font-family:'Mohave-Bold';}
	.st3{font-size:30px;}
	.st4{fill:#FFFFFF;}
	.st5{font-family:'Mohave-Light';}
	.st6{font-size:16px;}
</style>
<linearGradient id="SVGID_1_" gradientUnits="userSpaceOnUse" x1="73.9092" y1="-45.9454" x2="103.7107" y2="-45.9454" gradientTransform="matrix(0.7071 0.7071 -0.7071 0.7071 -61.5467 13.3839)">
	<stop  offset="0" style="stop-color:#00FAB2"/>
	<stop  offset="1" style="stop-color:#009BFF"/>
</linearGradient>
<path class="st0" d="M44.19,33.13c-0.32-0.23-0.65-0.44-1.12-0.44c-6.22,0.03-12.45,0.03-18.67,0.06c-1.12,0.01-1.67,0.63-1.66,1.81
	c0.04,6.13,0.08,12.25,0.14,18.38c0.01,1.14,0.43,1.72,1.77,1.72c6.13-0.01,12.25-0.03,18.38-0.05c1.18,0,1.76-0.6,1.76-1.8
	c0-1.15-0.03-2.3-0.04-3.45c-0.04-4.99-0.08-9.99-0.1-14.98C44.65,33.89,44.52,33.5,44.19,33.13z"/>
<path class="st1" d="M26.32,64c-0.07-1.31-0.06-2.64-0.04-3.95c0.02-2.18,0.03-2.14-2.15-2.22c-1.73-0.07-3.01-0.89-3.88-2.44
	c-0.6-1.08-0.59-2.2-0.55-3.36c0.02-0.48-0.11-0.75-0.65-0.75c-1.87,0.02-3.75,0.03-5.62,0.05c-0.16,0-0.33,0.05-0.51,0.08
	c-0.02,0.21-0.06,0.4-0.06,0.59c0.02,4.03,0.05,8.07,0.05,12.1c0,0.48,0.16,0.64,0.65,0.63c4.04-0.03,8.08-0.04,12.12-0.05
	C26.13,64.68,26.34,64.56,26.32,64z"/>
<path class="st1" d="M41.19,23.3c0.05,1.76,0.08,3.53,0.03,5.29c-0.02,0.73,0.1,0.98,0.9,0.91c2.33-0.19,4.22,0.55,5.31,2.78
	c0.46,0.95,0.41,1.96,0.41,2.97c0,0.26,0,0.51,0.11,0.76c0.17,0.02,0.34,0.06,0.5,0.06c1.83-0.01,3.66-0.07,5.49-0.03
	c0.59,0.01,0.73-0.15,0.72-0.68c-0.03-4.05-0.05-8.1-0.05-12.15c0-0.45-0.13-0.6-0.58-0.59c-4.08,0.04-8.16,0.06-12.24,0.07
	C41.34,22.68,41.17,22.8,41.19,23.3z"/>
<path class="st1" d="M19.56,35.6c-0.2-2.17,0.36-4.03,2.2-5.36c0.96-0.48,1.98-0.71,3.05-0.7c0.31,0,0.62,0.03,0.92,0.04
	c0.26,0.01,0.39-0.03,0.38-0.38c-0.04-1.96-0.06-3.93-0.04-5.89c0-0.46-0.08-0.54-0.54-0.53c-3.8,0.06-11.4,0.13-11.4,0.13
	c-1.41-0.21-1.45-0.2-1.45,0.68c0.03,4.02,0.09,8.04,0.1,12.06c0,0.49,0.11,0.55,0.54,0.55c1.92-0.03,3.83-0.05,5.75-0.01
	C19.6,36.19,19.6,36.03,19.56,35.6z"/>
<path class="st1" d="M48.53,51.17c-0.5-0.01-0.59,0.04-0.57,0.57c0.04,1.41,0.07,2.84-0.85,4.05c-0.79,0.75-1.47,1.64-2.65,1.85
	c-0.86,0.15-1.73,0.13-2.59,0.12c-0.32-0.01-0.47,0-0.46,0.38c0.03,1.97,0.05,3.93,0.05,5.9c0,0.45,0.11,0.55,0.58,0.54
	c1.57-0.04,11.73-0.1,12.15-0.04c0.5,0.08,0.65-0.19,0.65-0.68c-0.04-4.03-0.09-8.05-0.08-12.08c0-0.61-0.26-0.65-0.7-0.65
	C52.21,51.15,50.37,51.2,48.53,51.17z M46.63,56.68c0.02,0.05,0.05,0.1,0.1,0.16c-0.06,0.04-0.12,0.06-0.2,0.07
	C46.54,56.82,46.58,56.75,46.63,56.68z"/>
<rect x="12.85" y="39.26" class="st1" width="6.77" height="3.08"/>
<rect x="12.85" y="44.33" class="st1" width="6.77" height="3.08"/>
<rect x="32.92" y="24.62" transform="matrix(-1.836970e-16 1 -1 -1.836970e-16 62.4654 -10.1395)" class="st1" width="6.77" height="3.08"/>
<rect x="27.84" y="24.62" transform="matrix(-1.836970e-16 1 -1 -1.836970e-16 57.388 -5.062)" class="st1" width="6.77" height="3.08"/>
<rect x="47.93" y="39.26" class="st1" width="6.77" height="3.08"/>
<rect x="47.93" y="44.5" class="st1" width="6.77" height="3.08"/>
<rect x="32.92" y="59.85" transform="matrix(-1.836970e-16 1 -1 -1.836970e-16 97.6941 25.0893)" class="st1" width="6.77" height="3.08"/>
<rect x="27.84" y="59.85" transform="matrix(-1.836970e-16 1 -1 -1.836970e-16 92.6167 30.1667)" class="st1" width="6.77" height="3.08"/>
<g>
	<text transform="matrix(1 0 0 1 61.84 45.2096)" class="st1 st2 st3">LEGION</text>
</g>
<g>
	<text transform="matrix(1 0 0 1 63.7917 63.5925)" class="st4 st5 st6">We have evething</text>
</g>
</svg>
