<?xml version="1.0" encoding="utf-8"?>
<!-- Generator: Adobe Illustrator 26.0.1, SVG Export Plug-In . SVG Version: 6.00 Build 0)  -->
<svg version="1.1" id="Layer_1" xmlns="http://www.w3.org/2000/svg" xmlns:xlink="http://www.w3.org/1999/xlink" x="0px" y="0px"
	 viewBox="0 0 150 76" style="enable-background:new 0 0 150 76;" xml:space="preserve">
<style type="text/css">
	.st0{fill:url(#SVGID_1_);}
	.st1{fill:#00FAB2;}
	.st2{font-family:'Mohave-Bold';}
	.st3{font-size:30px;}
</style>
<linearGradient id="SVGID_1_" gradientUnits="userSpaceOnUse" x1="72.0111" y1="-59.0049" x2="101.8126" y2="-59.0049" gradientTransform="matrix(0.7071 0.7071 -0.7071 0.7071 -67.7182 18.2834)">
	<stop  offset="0" style="stop-color:#00FAB2"/>
	<stop  offset="1" style="stop-color:#009BFF"/>
</linearGradient>
<path class="st0" d="M45.91,27.45c-0.32-0.23-0.65-0.44-1.12-0.44c-6.22,0.03-12.45,0.03-18.67,0.06c-1.12,0.01-1.67,0.63-1.66,1.81
	c0.04,6.13,0.08,12.25,0.14,18.38c0.01,1.14,0.43,1.72,1.77,1.72c6.13-0.01,12.25-0.03,18.38-0.05c1.18,0,1.76-0.6,1.76-1.8
	c0-1.15-0.03-2.3-0.04-3.45c-0.04-4.99-0.08-9.99-0.1-14.98C46.37,28.22,46.24,27.83,45.91,27.45z"/>
<path class="st1" d="M28.04,58.32c-0.07-1.31-0.06-2.64-0.04-3.95c0.02-2.18,0.03-2.14-2.15-2.22c-1.73-0.07-3.01-0.89-3.88-2.44
	c-0.6-1.08-0.59-2.2-0.55-3.36c0.02-0.48-0.11-0.75-0.65-0.75c-1.87,0.02-3.75,0.03-5.62,0.05c-0.16,0-0.33,0.05-0.51,0.08
	c-0.02,0.21-0.06,0.4-0.06,0.59c0.02,4.03,0.05,8.07,0.05,12.1c0,0.48,0.16,0.64,0.65,0.63c4.04-0.03,8.08-0.04,12.12-0.05
	C27.85,59,28.07,58.88,28.04,58.32z"/>
<path class="st1" d="M42.91,17.62c0.05,1.76,0.08,3.53,0.03,5.29c-0.02,0.73,0.1,0.98,0.9,0.91c2.33-0.19,4.22,0.55,5.31,2.78
	c0.46,0.95,0.41,1.96,0.41,2.97c0,0.26,0,0.51,0.11,0.76c0.17,0.02,0.34,0.06,0.5,0.06c1.83-0.01,3.66-0.07,5.49-0.03
	c0.59,0.01,0.73-0.15,0.72-0.68c-0.03-4.05-0.05-8.1-0.05-12.15c0-0.45-0.13-0.6-0.58-0.59c-4.08,0.04-8.16,0.06-12.24,0.07
	C43.06,17,42.89,17.12,42.91,17.62z"/>
<path class="st1" d="M21.28,29.93c-0.2-2.17,0.36-4.03,2.2-5.36c0.96-0.48,1.98-0.71,3.05-0.7c0.31,0,0.62,0.03,0.92,0.04
	c0.26,0.01,0.39-0.03,0.38-0.38c-0.04-1.96-0.06-3.93-0.04-5.89c0-0.46-0.08-0.54-0.54-0.53c-3.8,0.06-11.4,0.13-11.4,0.13
	c-1.41-0.21-1.45-0.2-1.45,0.68c0.03,4.02,0.09,8.04,0.1,12.06c0,0.49,0.11,0.55,0.54,0.55c1.92-0.03,3.83-0.05,5.75-0.01
	C21.32,30.51,21.32,30.36,21.28,29.93z"/>
<path class="st1" d="M50.25,45.5c-0.5-0.01-0.59,0.04-0.57,0.57c0.04,1.41,0.07,2.84-0.85,4.05c-0.79,0.75-1.47,1.64-2.65,1.85
	c-0.86,0.15-1.73,0.13-2.59,0.12c-0.32-0.01-0.47,0-0.46,0.38c0.03,1.97,0.05,3.93,0.05,5.9c0,0.45,0.11,0.55,0.58,0.54
	c1.57-0.04,11.73-0.1,12.15-0.04c0.5,0.08,0.65-0.19,0.65-0.68c-0.04-4.03-0.09-8.05-0.08-12.08c0-0.61-0.26-0.65-0.7-0.65
	C53.93,45.47,52.09,45.52,50.25,45.5z M48.35,51.01c0.02,0.05,0.05,0.1,0.1,0.16c-0.06,0.04-0.12,0.06-0.2,0.07
	C48.26,51.15,48.3,51.07,48.35,51.01z"/>
<rect x="14.57" y="33.58" class="st1" width="6.77" height="3.08"/>
<rect x="14.57" y="38.66" class="st1" width="6.77" height="3.08"/>
<rect x="34.64" y="18.95" transform="matrix(-1.836970e-16 1 -1 -1.836970e-16 58.509 -17.5373)" class="st1" width="6.77" height="3.08"/>
<rect x="29.56" y="18.95" transform="matrix(-1.836970e-16 1 -1 -1.836970e-16 53.4316 -12.4599)" class="st1" width="6.77" height="3.08"/>
<rect x="49.65" y="33.58" class="st1" width="6.77" height="3.08"/>
<rect x="49.65" y="38.83" class="st1" width="6.77" height="3.08"/>
<rect x="34.64" y="54.18" transform="matrix(-1.836970e-16 1 -1 -1.836970e-16 93.7378 17.6914)" class="st1" width="6.77" height="3.08"/>
<rect x="29.56" y="54.18" transform="matrix(-1.836970e-16 1 -1 -1.836970e-16 88.6603 22.7688)" class="st1" width="6.77" height="3.08"/>
<g>
	<text transform="matrix(1 0 0 1 63.5607 48.9844)" class="st1 st2 st3">LEGION</text>
</g>
</svg>
