<?xml version="1.0" encoding="utf-8"?>
<!-- Generator: Adobe Illustrator 26.0.1, SVG Export Plug-In . SVG Version: 6.00 Build 0)  -->
<svg version="1.1" id="Layer_1" xmlns="http://www.w3.org/2000/svg" xmlns:xlink="http://www.w3.org/1999/xlink" x="0px" y="0px"
	 viewBox="0 0 170.72 65.11" style="enable-background:new 0 0 170.72 65.11;" xml:space="preserve">
<style type="text/css">
	.st0{fill:url(#SVGID_1_);}
	.st1{fill:#00FAB2;}
	.st2{font-family:'Mohave-Bold';}
	.st3{font-size:30px;}
</style>
<linearGradient id="SVGID_1_" gradientUnits="userSpaceOnUse" x1="73.5934" y1="-67.5228" x2="103.3949" y2="-67.5228" gradientTransform="matrix(0.7071 0.7071 -0.7071 0.7071 -68.721 18.9248)">
	<stop  offset="0" style="stop-color:#00FAB2"/>
	<stop  offset="1" style="stop-color:#009BFF"/>
</linearGradient>
<path class="st0" d="M52.05,23.19c-0.32-0.23-0.65-0.44-1.12-0.44c-6.22,0.03-12.45,0.03-18.67,0.06c-1.12,0.01-1.67,0.63-1.66,1.81
	c0.04,6.13,0.08,12.25,0.14,18.38c0.01,1.14,0.43,1.72,1.77,1.72c6.13-0.01,12.25-0.03,18.38-0.05c1.18,0,1.76-0.6,1.76-1.8
	c0-1.15-0.03-2.3-0.04-3.45c-0.04-4.99-0.08-9.99-0.1-14.98C52.51,23.95,52.38,23.56,52.05,23.19z"/>
<path class="st1" d="M34.18,54.06c-0.07-1.31-0.06-2.64-0.04-3.95c0.02-2.18,0.03-2.14-2.15-2.22c-1.73-0.07-3.01-0.89-3.88-2.44
	c-0.6-1.08-0.59-2.2-0.55-3.36c0.02-0.48-0.11-0.75-0.65-0.75c-1.87,0.02-3.75,0.03-5.62,0.05c-0.16,0-0.33,0.05-0.51,0.08
	c-0.02,0.21-0.06,0.4-0.06,0.59c0.02,4.03,0.05,8.07,0.05,12.1c0,0.48,0.16,0.64,0.65,0.63c4.04-0.03,8.08-0.04,12.12-0.05
	C33.99,54.74,34.2,54.62,34.18,54.06z"/>
<path class="st1" d="M49.05,13.36c0.05,1.76,0.08,3.53,0.03,5.29c-0.02,0.73,0.1,0.98,0.9,0.91c2.33-0.19,4.22,0.55,5.31,2.78
	c0.46,0.95,0.41,1.96,0.41,2.97c0,0.26,0,0.51,0.11,0.76c0.17,0.02,0.34,0.06,0.5,0.06c1.83-0.01,3.66-0.07,5.49-0.03
	c0.59,0.01,0.73-0.15,0.72-0.68c-0.03-4.05-0.05-8.1-0.05-12.15c0-0.45-0.13-0.6-0.58-0.59c-4.08,0.04-8.16,0.06-12.24,0.07
	C49.2,12.74,49.03,12.86,49.05,13.36z"/>
<path class="st1" d="M27.42,25.66c-0.2-2.17,0.36-4.03,2.2-5.36c0.96-0.48,1.98-0.71,3.05-0.7c0.31,0,0.62,0.03,0.92,0.04
	c0.26,0.01,0.39-0.03,0.38-0.38c-0.04-1.96-0.06-3.93-0.04-5.89c0-0.46-0.08-0.54-0.54-0.53c-3.8,0.06-11.4,0.13-11.4,0.13
	c-1.41-0.21-1.45-0.2-1.45,0.68c0.03,4.02,0.09,8.04,0.1,12.06c0,0.49,0.11,0.55,0.54,0.55c1.92-0.03,3.83-0.05,5.75-0.01
	C27.46,26.25,27.46,26.09,27.42,25.66z"/>
<path class="st1" d="M56.39,41.23c-0.5-0.01-0.59,0.04-0.57,0.57c0.04,1.41,0.07,2.84-0.85,4.05c-0.79,0.75-1.47,1.64-2.65,1.85
	c-0.86,0.15-1.73,0.13-2.59,0.12c-0.32-0.01-0.47,0-0.46,0.38c0.03,1.97,0.05,3.93,0.05,5.9c0,0.45,0.11,0.55,0.58,0.54
	c1.57-0.04,11.73-0.1,12.15-0.04c0.5,0.08,0.65-0.19,0.65-0.68c-0.04-4.03-0.09-8.05-0.08-12.08c0-0.61-0.26-0.65-0.7-0.65
	C60.07,41.21,58.23,41.26,56.39,41.23z M54.49,46.74c0.02,0.05,0.05,0.1,0.1,0.16c-0.06,0.04-0.12,0.06-0.2,0.07
	C54.4,46.88,54.44,46.81,54.49,46.74z"/>
<rect x="20.71" y="29.32" class="st1" width="6.77" height="3.08"/>
<rect x="20.71" y="34.39" class="st1" width="6.77" height="3.08"/>
<rect x="40.78" y="14.68" transform="matrix(-1.836970e-16 1 -1 -1.836970e-16 60.3854 -27.9392)" class="st1" width="6.77" height="3.08"/>
<rect x="35.7" y="14.68" transform="matrix(-1.836970e-16 1 -1 -1.836970e-16 55.308 -22.8618)" class="st1" width="6.77" height="3.08"/>
<rect x="55.79" y="29.32" class="st1" width="6.77" height="3.08"/>
<rect x="55.79" y="34.56" class="st1" width="6.77" height="3.08"/>
<rect x="36.64" y="49.25" transform="matrix(-1.836970e-16 1 -1 -1.836970e-16 90.8135 10.7669)" class="st1" width="6.77" height="3.08"/>
<rect x="31.56" y="49.25" transform="matrix(-1.836970e-16 1 -1 -1.836970e-16 85.736 15.8443)" class="st1" width="6.77" height="3.08"/>
<g>
	<text transform="matrix(1 0 0 1 69.6998 44.7216)" class="st1 st2 st3">LEGION</text>
</g>
</svg>
