<?xml version="1.0" encoding="utf-8"?>
<!-- Generator: Adobe Illustrator 26.0.1, SVG Export Plug-In . SVG Version: 6.00 Build 0)  -->
<svg version="1.1" id="Layer_1" xmlns="http://www.w3.org/2000/svg" xmlns:xlink="http://www.w3.org/1999/xlink" x="0px" y="0px"
	 viewBox="0 0 135.05 133.24" style="enable-background:new 0 0 135.05 133.24;" xml:space="preserve">
<style type="text/css">
	.st0{fill:#FFFFFF;}
</style>
<g>
	<path class="st0" d="M55.26,46.89c-7.46,0-13.54,6.08-13.54,13.55c0,7.47,6.08,13.54,13.54,13.54c7.47,0,13.55-6.08,13.55-13.54
		C68.81,52.97,62.73,46.89,55.26,46.89z M55.26,71.9c-6.32,0-11.46-5.14-11.46-11.46s5.14-11.46,11.46-11.46
		c6.32,0,11.47,5.14,11.47,11.46S61.58,71.9,55.26,71.9z"/>
	<path class="st0" d="M60.78,54.48l-5.52,5.52l-5.52-5.52c-0.41-0.4-1.07-0.4-1.47,0c-0.41,0.41-0.41,1.07,0,1.47l6.25,6.26
		c0.21,0.2,0.48,0.31,0.74,0.31c0.27,0,0.53-0.1,0.74-0.31c0,0,0,0,0,0l6.26-6.26c0.41-0.41,0.41-1.06,0-1.47
		C61.85,54.08,61.19,54.08,60.78,54.48z"/>
	<path class="st0" d="M119.09,85.95c-2.27,0.08-4.58,0.08-6.85,0.04c-0.04-1.37-0.04-2.7,0-4.07c2.27-0.04,4.54-0.04,6.81,0
		C119.13,83.28,119.13,84.61,119.09,85.95z"/>
	<path class="st0" d="M21.35,42.43v39.06H89.7v-32.5h16.4v-6.55H21.35z M55.26,73.98c-7.46,0-13.54-6.08-13.54-13.54
		c0-7.47,6.08-13.55,13.54-13.55c7.47,0,13.55,6.08,13.55,13.55C68.81,67.9,62.73,73.98,55.26,73.98z"/>
	<path class="st0" d="M68.81,60.44c0,7.47-6.08,13.54-13.55,13.54c-7.46,0-13.54-6.08-13.54-13.54c0-7.47,6.08-13.55,13.54-13.55
		C62.73,46.89,68.81,52.97,68.81,60.44z"/>
	<path class="st0" d="M40.69,90.21c-0.71-4.13-4.3-7.27-8.62-7.28h-0.04c-4.33,0.01-7.92,3.15-8.62,7.28
		c-0.08,0.48-0.13,0.98-0.13,1.49c0,4.84,3.93,8.77,8.77,8.77c4.84,0,8.77-3.93,8.77-8.77C40.82,91.19,40.78,90.69,40.69,90.21z
		 M33.82,93.62c-0.47,0.43-1.09,0.69-1.77,0.69c-0.68,0-1.3-0.26-1.77-0.69c-0.52-0.48-0.85-1.16-0.85-1.92
		c0-0.16,0.02-0.32,0.04-0.48c0.07-0.37,0.22-0.72,0.43-1.02c0.47-0.68,1.26-1.13,2.15-1.13c0.89,0,1.68,0.44,2.15,1.13
		c0.21,0.3,0.36,0.64,0.43,1.02c0.03,0.15,0.04,0.31,0.04,0.48C34.67,92.46,34.34,93.15,33.82,93.62z"/>
	<path class="st0" d="M101.34,82.93c-4.85,0-8.77,3.93-8.77,8.77c0,4.84,3.93,8.77,8.77,8.77c4.84,0,8.77-3.93,8.77-8.77
		C110.11,86.85,106.18,82.93,101.34,82.93z M103.11,93.63c-0.47,0.43-1.09,0.69-1.77,0.69c-0.69,0-1.31-0.26-1.77-0.69
		c-0.52-0.48-0.85-1.16-0.85-1.93c0-0.16,0.02-0.32,0.04-0.48c0.22-1.22,1.29-2.14,2.58-2.14s2.35,0.92,2.57,2.14
		c0.03,0.15,0.05,0.31,0.05,0.48C103.96,92.46,103.63,93.15,103.11,93.63z"/>
	<path class="st0" d="M119.51,85.65c-0.04-4,0.07-7.97-0.07-11.98c-1.28-0.58-2.57-1.17-3.86-1.77c-0.9-0.42-1.79-0.84-2.68-1.28
		c-0.12-0.05-0.23-0.1-0.33-0.16c-1.82-0.98-1.76-3.43-2.46-5.17c-0.72-2.95-1.91-5.81-2.63-8.75c-0.46-1.86-0.73-3.76-0.57-5.73
		c-5.24-0.07-10.44-0.04-15.64,0h-0.05v0.01l-0.03-0.02v6.45l0.03,0.02c-0.02,8.55-0.09,17.1,0,25.65H35.2
		c3.09,1.1,5.45,3.79,6.03,7.19c0,0.03,0.01,0.06,0.01,0.09h50.08c1.29-4.08,4.48-8.01,9.08-8.27c5.07-0.74,9.77,3.16,10.87,8.01
		c3.35,0.04,6.69,0.04,10.03,0.04c0-1.4,0.04-2.83,0.04-4.23C120.72,85.72,120.14,85.69,119.51,85.65z M98.13,69.93
		c-0.04-3.9-0.11-7.79,0.04-11.68c2.61,0,5.25-0.04,7.86,0.07c1.03,3.86,2.28,7.68,3.31,11.57
		C105.59,69.96,101.88,69.93,98.13,69.93z M119.09,85.95c-2.27,0.08-4.58,0.08-6.85,0.04c-0.04-1.37-0.04-2.7,0-4.07
		c2.27-0.04,4.54-0.04,6.81,0C119.13,83.28,119.13,84.61,119.09,85.95z"/>
</g>
</svg>
