<?xml version="1.0" encoding="utf-8"?>
<!-- Generator: Adobe Illustrator 26.0.1, SVG Export Plug-In . SVG Version: 6.00 Build 0)  -->
<svg version="1.1" id="Layer_1" xmlns="http://www.w3.org/2000/svg" xmlns:xlink="http://www.w3.org/1999/xlink" x="0px" y="0px"
	 viewBox="0 0 133.03 69.78" style="enable-background:new 0 0 133.03 69.78;" xml:space="preserve">
<style type="text/css">
	.st0{fill:#FFFFFF;}
	.st1{fill:none;stroke:#FFFFFF;stroke-width:0.2641;stroke-miterlimit:10;}
</style>
<g>
	<rect x="32.65" y="15.45" class="st0" width="2.94" height="0.8"/>
	<path class="st0" d="M37.87,35.36c-0.45,1.94-1.29,3.42-2.54,4.44c-1.25,1.06-2.83,1.59-4.72,1.59c-2.3,0-4.1-0.85-5.39-2.56
		c-1.29-1.66-1.94-4.04-1.94-7.14c0-2.96,0.63-5.27,1.88-6.93c1.29-1.71,3.09-2.57,5.39-2.57c2.42,0,4.3,0.83,5.63,2.5
		c0.73,1.02,1.25,2.19,1.57,3.54h-4.24c-0.2-0.46-0.4-0.81-0.61-1.04c-0.52-0.65-1.27-0.97-2.24-0.97c-0.89,0-1.62,0.32-2.18,0.97
		c-0.73,0.92-1.09,2.45-1.09,4.58s0.36,3.63,1.09,4.51c0.53,0.74,1.31,1.11,2.36,1.11c0.69,0,1.27-0.16,1.76-0.48
		c0.12-0.04,0.24-0.13,0.34-0.24c0.1-0.12,0.21-0.24,0.33-0.38c0.08-0.14,0.24-0.32,0.48-0.55c0.24-0.23,0.61-0.35,1.09-0.35H37.87z
		"/>
	<rect x="98.29" y="15.45" class="st0" width="2.94" height="0.8"/>
	<rect x="106.01" y="15.45" class="st0" width="2.94" height="0.8"/>
	<path class="st0" d="M113.52,30.23v10.82h-2.12c-0.6,0-1.1-0.22-1.48-0.66c-0.39-0.44-0.58-1.01-0.58-1.7v-9.43
		c0-1.11-0.29-1.91-0.88-2.43c-0.59-0.51-1.24-0.76-1.97-0.76c-0.73,0-1.37,0.26-1.94,0.76c-0.57,0.51-0.85,1.32-0.85,2.43v11.79
		h-4.24V30.23c0-3.14,0.72-5.24,2.15-6.31c1.43-1.06,3.02-1.64,4.75-1.73c1.77,0,3.41,0.53,4.9,1.6
		C112.77,24.84,113.52,26.99,113.52,30.23z"/>
	<rect x="36.51" y="15.45" class="st0" width="2.94" height="0.8"/>
	<rect x="102.15" y="15.45" class="st0" width="2.94" height="0.8"/>
	<rect x="78.99" y="50.54" class="st0" width="2.94" height="0.81"/>
	<rect x="75.12" y="50.54" class="st0" width="2.94" height="0.81"/>
	<rect x="71.26" y="50.54" class="st0" width="2.94" height="0.81"/>
	<rect x="67.4" y="50.54" class="st0" width="2.94" height="0.81"/>
	<rect x="75.12" y="15.45" class="st0" width="2.94" height="0.8"/>
	<rect x="78.99" y="15.45" class="st0" width="2.94" height="0.8"/>
	<rect x="71.26" y="15.45" class="st0" width="2.94" height="0.8"/>
	<rect x="94.43" y="15.45" class="st0" width="2.94" height="0.8"/>
	<rect x="82.85" y="15.45" class="st0" width="2.94" height="0.8"/>
	<rect x="90.57" y="15.45" class="st0" width="2.94" height="0.8"/>
	<path class="st0" d="M97.77,26.34c-0.73-1.71-1.86-2.91-3.39-3.61c-1.33-0.55-2.83-0.7-4.48-0.45c-1.65,0.26-3.01,1.08-4.06,2.46
		c-0.65,0.83-1.12,1.87-1.42,3.12c-0.3,1.25-0.45,2.5-0.45,3.74c0,1.53,0.18,2.99,0.54,4.4c0.36,1.41,0.97,2.53,1.82,3.36
		c0.81,0.83,1.89,1.42,3.24,1.77c1.35,0.35,2.7,0.31,4.03-0.11c1.49-0.37,2.73-1.32,3.69-2.84c0.45-0.74,0.81-1.64,1.09-2.71
		c0.28-1.06,0.43-2.33,0.43-3.81C98.8,29.65,98.46,27.87,97.77,26.34z M93.89,35.77c-0.49,0.83-1.04,1.35-1.66,1.56
		c-0.63,0.21-1.24,0.19-1.85-0.07c-0.6-0.25-1.03-0.57-1.27-0.93c-0.6-0.83-0.95-2.3-1.03-4.4c-0.08-2.1,0.3-3.68,1.15-4.75
		c0.28-0.32,0.73-0.59,1.33-0.8c0.6-0.21,1.21-0.2,1.82,0.03s1.14,0.76,1.6,1.6c0.46,0.83,0.7,2.08,0.7,3.74
		C94.64,33.6,94.38,34.94,93.89,35.77z"/>
	<rect x="86.71" y="15.45" class="st0" width="2.94" height="0.8"/>
	<rect x="82.85" y="50.54" class="st0" width="2.94" height="0.81"/>
	<rect x="102.35" y="50.54" class="st0" width="2.94" height="0.81"/>
	<rect x="106.21" y="50.54" class="st0" width="2.94" height="0.81"/>
	<rect x="98.49" y="50.54" class="st0" width="2.94" height="0.81"/>
	<rect x="94.63" y="50.54" class="st0" width="2.94" height="0.81"/>
	<path class="st0" d="M115.54,49.4c-0.42,0.64-0.97,1.16-1.61,1.5V50c0.25-0.17,0.48-0.37,0.68-0.6H115.54z"/>
	<path class="st0" d="M116.36,44.98v1.59c0,0.63-0.11,1.23-0.3,1.78h-0.77c0.24-0.54,0.38-1.14,0.38-1.78v-1.59H116.36z"/>
	<rect x="90.77" y="50.54" class="st0" width="2.94" height="0.81"/>
	<rect x="115.66" y="27.29" class="st0" width="0.7" height="3.36"/>
	<rect x="115.66" y="40.56" class="st0" width="0.7" height="3.37"/>
	<path class="st0" d="M115.54,17.4h-0.93c-0.26-0.29-0.55-0.54-0.88-0.72v-0.88C114.46,16.13,115.08,16.69,115.54,17.4z"/>
	<path class="st0" d="M112.81,15.51v0.81c-0.2-0.04-0.41-0.07-0.63-0.07h-2.31v-0.8h2.31C112.4,15.45,112.61,15.47,112.81,15.51z"/>
	<rect x="115.66" y="22.87" class="st0" width="0.7" height="3.36"/>
	<path class="st0" d="M116.36,20.23v1.59h-0.7v-1.59c0-0.64-0.14-1.24-0.37-1.78h0.78C116.26,19,116.36,19.6,116.36,20.23z"/>
	<rect x="115.66" y="36.14" class="st0" width="0.7" height="3.36"/>
	<rect x="86.71" y="50.54" class="st0" width="3.14" height="0.81"/>
	<rect x="115.66" y="31.71" class="st0" width="0.7" height="3.36"/>
	<path class="st0" d="M21.04,18.45c-0.24,0.53-0.37,1.14-0.37,1.78v1.59h-0.7v-1.59c0-0.63,0.11-1.23,0.3-1.78H21.04z"/>
	<rect x="19.97" y="36.14" class="st0" width="0.7" height="3.36"/>
	<rect x="19.97" y="31.71" class="st0" width="0.7" height="3.36"/>
	<rect x="19.97" y="27.29" class="st0" width="0.7" height="3.37"/>
	<rect x="19.97" y="22.87" class="st0" width="0.7" height="3.36"/>
	<path class="st0" d="M24.01,50.53v0.8c-1.32-0.05-2.48-0.8-3.21-1.94h0.86v-0.07C22.25,50.04,23.09,50.49,24.01,50.53z"/>
	<rect x="19.97" y="40.56" class="st0" width="0.7" height="3.37"/>
	<rect x="24.93" y="50.54" class="st0" width="2.94" height="0.81"/>
	<path class="st0" d="M21.04,48.34h-0.77c-0.19-0.55-0.3-1.15-0.3-1.78v-1.59h0.7v1.59C20.67,47.21,20.81,47.8,21.04,48.34z"/>
	<path class="st0" d="M113.01,50.42v0.83c-0.27,0.06-0.54,0.1-0.83,0.1h-2.12v-0.81h2.12C112.47,50.54,112.75,50.5,113.01,50.42z"/>
	<rect x="28.79" y="15.45" class="st0" width="2.94" height="0.8"/>
	<rect x="24.93" y="15.45" class="st0" width="2.94" height="0.8"/>
	<path class="st0" d="M24.01,15.46v0.8c-0.92,0.04-1.75,0.5-2.36,1.21V17.4h-0.86C21.53,16.26,22.69,15.51,24.01,15.46z"/>
	<path class="st0" d="M51.98,26.34c-0.73-1.71-1.86-2.91-3.39-3.61c-1.33-0.55-2.83-0.7-4.48-0.45c-1.66,0.26-3.01,1.08-4.06,2.46
		c-0.64,0.83-1.12,1.87-1.42,3.12c-0.3,1.25-0.45,2.5-0.45,3.74c0,1.53,0.18,2.99,0.55,4.4c0.36,1.41,0.97,2.53,1.82,3.36
		c0.81,0.83,1.89,1.42,3.24,1.77c1.35,0.35,2.7,0.31,4.03-0.11c1.49-0.37,2.73-1.32,3.69-2.84c0.44-0.74,0.81-1.64,1.09-2.71
		c0.28-1.06,0.43-2.33,0.43-3.81C53.01,29.65,52.67,27.87,51.98,26.34z M48.11,35.77c-0.49,0.83-1.04,1.35-1.67,1.56
		c-0.63,0.21-1.24,0.19-1.85-0.07c-0.6-0.25-1.03-0.57-1.27-0.93c-0.6-0.83-0.95-2.3-1.03-4.4c-0.08-2.1,0.3-3.68,1.15-4.75
		c0.28-0.32,0.73-0.59,1.33-0.8c0.61-0.21,1.21-0.2,1.82,0.03c0.61,0.23,1.14,0.76,1.61,1.6c0.46,0.83,0.7,2.08,0.7,3.74
		C48.85,33.6,48.59,34.94,48.11,35.77z"/>
	<rect x="44.24" y="15.45" class="st0" width="2.94" height="0.8"/>
	<rect x="48.1" y="15.45" class="st0" width="2.94" height="0.8"/>
	<rect x="40.37" y="15.45" class="st0" width="2.94" height="0.8"/>
	<rect x="51.96" y="15.45" class="st0" width="2.94" height="0.8"/>
	<rect x="48.1" y="50.54" class="st0" width="2.94" height="0.81"/>
	<rect x="28.79" y="50.54" class="st0" width="2.94" height="0.81"/>
	<rect x="63.54" y="50.54" class="st0" width="2.94" height="0.81"/>
	<rect x="55.82" y="15.45" class="st0" width="2.94" height="0.8"/>
	<rect x="59.68" y="50.54" class="st0" width="2.94" height="0.81"/>
	<rect x="67.4" y="15.45" class="st0" width="2.94" height="0.8"/>
	<rect x="59.68" y="15.45" class="st0" width="2.94" height="0.8"/>
	<path class="st0" d="M67.73,22.6v10.82c0,3.28-0.75,5.43-2.24,6.45c-1.49,1.02-3.13,1.52-4.91,1.52c-1.73-0.09-3.32-0.64-4.75-1.66
		c-1.43-1.01-2.15-3.12-2.15-6.31V22.6h4.24v11.79c0,1.11,0.28,1.92,0.85,2.43c0.57,0.51,1.21,0.76,1.94,0.76
		c0.73,0,1.38-0.25,1.97-0.76c0.59-0.51,0.88-1.32,0.88-2.43v-9.43c0-0.65,0.19-1.2,0.58-1.66c0.38-0.46,0.88-0.69,1.48-0.69H67.73z
		"/>
	<rect x="44.24" y="50.54" class="st0" width="2.94" height="0.81"/>
	<rect x="40.37" y="50.54" class="st0" width="2.94" height="0.81"/>
	<rect x="36.51" y="50.54" class="st0" width="2.94" height="0.81"/>
	<rect x="32.65" y="50.54" class="st0" width="2.94" height="0.81"/>
	<rect x="51.96" y="50.54" class="st0" width="2.94" height="0.81"/>
	<rect x="55.82" y="50.54" class="st0" width="2.94" height="0.81"/>
	<rect x="63.54" y="15.45" class="st0" width="2.94" height="0.8"/>
	<path class="st0" d="M81.78,24.75c-0.6-0.83-1.42-1.47-2.45-1.91c-1.03-0.44-2.05-0.66-3.06-0.66c-1.94,0-3.73,0.59-5.39,1.77
		c-1.66,1.18-2.48,3.39-2.48,6.62v17.27h2.06c0.57,0,1.05-0.23,1.45-0.69c0.4-0.46,0.61-1.02,0.61-1.66v-6.87
		c0.48,0.97,1.13,1.69,1.94,2.15c0.77,0.42,1.66,0.62,2.66,0.62c1.9,0,3.45-0.88,4.66-2.63c1.21-1.8,1.82-4.16,1.82-7.07
		C83.6,28.86,82.99,26.55,81.78,24.75z M78.51,35.84c-0.6,0.97-1.43,1.46-2.48,1.46c-1.13,0-2-0.49-2.6-1.46
		c-0.6-0.88-0.91-2.19-0.91-3.95c0-1.9,0.28-3.29,0.85-4.16c0.6-0.97,1.45-1.46,2.54-1.46c1.13,0,2,0.49,2.6,1.46
		c0.6,0.97,0.91,2.36,0.91,4.16C79.42,33.55,79.11,34.87,78.51,35.84z"/>
	<path class="st1" d="M109.87,15.45h2.31c0.21,0,0.42,0.02,0.63,0.06v0.81c-0.2-0.04-0.41-0.07-0.63-0.07h-2.31V15.45z
		 M106.01,15.45h2.94v0.8h-2.94V15.45z M102.15,15.45h2.94v0.8h-2.94V15.45z M98.29,15.45h2.94v0.8h-2.94V15.45z M94.43,15.45h2.94
		v0.8h-2.94V15.45z M90.57,15.45h2.94v0.8h-2.94V15.45z M86.71,15.45h2.94v0.8h-2.94V15.45z M82.85,15.45h2.94v0.8h-2.94V15.45z
		 M78.99,15.45h2.94v0.8h-2.94V15.45z M75.12,15.45h2.94v0.8h-2.94V15.45z M71.26,15.45h2.94v0.8h-2.94V15.45z M67.4,15.45h2.94v0.8
		H67.4V15.45z M63.54,15.45h2.94v0.8h-2.94V15.45z M59.68,15.45h2.94v0.8h-2.94V15.45z M55.82,15.45h2.94v0.8h-2.94V15.45z
		 M51.96,15.45h2.94v0.8h-2.94V15.45z M48.1,15.45h2.94v0.8H48.1V15.45z M44.24,15.45h2.94v0.8h-2.94V15.45z M40.37,15.45h2.94v0.8
		h-2.94V15.45z M36.51,15.45h2.94v0.8h-2.94V15.45z M32.65,15.45h2.94v0.8h-2.94V15.45z M28.79,15.45h2.94v0.8h-2.94V15.45z
		 M24.93,15.45h2.94v0.8h-2.94V15.45z M113.82,13.6h-91.2c-2.43,0-4.4,2.26-4.4,5.04v30.32c0,2.78,1.97,5.04,4.4,5.04h91.2
		c2.43,0,4.4-2.26,4.4-5.04V18.64C118.23,15.86,116.26,13.6,113.82,13.6z M24.01,15.46v0.8c-0.92,0.04-1.75,0.5-2.36,1.21V17.4
		h-0.86C21.53,16.26,22.69,15.51,24.01,15.46z M19.97,20.23c0-0.63,0.11-1.23,0.3-1.78h0.77c-0.24,0.53-0.37,1.14-0.37,1.78v1.59
		h-0.7V20.23z M19.97,22.87h0.7v3.36h-0.7V22.87z M19.97,27.29h0.7v3.37h-0.7V27.29z M19.97,31.71h0.7v3.36h-0.7V31.71z
		 M19.97,36.14h0.7v3.36h-0.7V36.14z M19.97,40.56h0.7v3.37h-0.7V40.56z M19.97,46.56v-1.59h0.7v1.59c0,0.64,0.13,1.24,0.37,1.78
		h-0.77C20.08,47.79,19.97,47.19,19.97,46.56z M24.01,51.34c-1.32-0.05-2.48-0.8-3.21-1.94h0.86v-0.07c0.6,0.71,1.43,1.16,2.36,1.21
		V51.34z M27.87,51.35h-2.94v-0.81h2.94V51.35z M31.73,51.35h-2.94v-0.81h2.94V51.35z M35.59,51.35h-2.94v-0.81h2.94V51.35z
		 M35.33,39.8c-1.25,1.06-2.83,1.59-4.72,1.59c-2.3,0-4.1-0.85-5.39-2.56c-1.29-1.66-1.94-4.04-1.94-7.14
		c0-2.96,0.63-5.27,1.88-6.93c1.29-1.71,3.09-2.57,5.39-2.57c2.42,0,4.3,0.83,5.63,2.5c0.73,1.02,1.25,2.19,1.57,3.54h-4.24
		c-0.2-0.46-0.4-0.81-0.61-1.04c-0.52-0.65-1.27-0.97-2.24-0.97c-0.89,0-1.62,0.32-2.18,0.97c-0.73,0.92-1.09,2.45-1.09,4.58
		s0.36,3.63,1.09,4.51c0.53,0.74,1.31,1.11,2.36,1.11c0.69,0,1.27-0.16,1.76-0.48c0.12-0.04,0.24-0.13,0.34-0.24
		c0.1-0.12,0.21-0.24,0.33-0.38c0.08-0.14,0.24-0.32,0.48-0.55c0.24-0.23,0.61-0.35,1.09-0.35h3.03
		C37.43,37.3,36.58,38.78,35.33,39.8z M39.45,51.35h-2.94v-0.81h2.94V51.35z M43.31,51.35h-2.94v-0.81h2.94V51.35z M47.17,51.35
		h-2.94v-0.81h2.94V51.35z M51.04,51.35H48.1v-0.81h2.94V51.35z M47.8,41.04c-1.33,0.42-2.68,0.45-4.03,0.11
		c-1.35-0.35-2.43-0.94-3.24-1.77c-0.85-0.83-1.45-1.95-1.82-3.36c-0.36-1.41-0.55-2.88-0.55-4.4c0-1.25,0.15-2.5,0.45-3.74
		c0.3-1.25,0.78-2.29,1.42-3.12c1.05-1.39,2.4-2.21,4.06-2.46c1.66-0.25,3.15-0.1,4.48,0.45c1.53,0.69,2.66,1.9,3.39,3.61
		c0.68,1.52,1.03,3.3,1.03,5.34c0,1.48-0.14,2.75-0.43,3.81c-0.28,1.06-0.65,1.97-1.09,2.71C50.53,39.72,49.3,40.67,47.8,41.04z
		 M54.9,51.35h-2.94v-0.81h2.94V51.35z M53.68,33.42V22.6h4.24v11.79c0,1.11,0.28,1.92,0.85,2.43c0.57,0.51,1.21,0.76,1.94,0.76
		c0.73,0,1.38-0.25,1.97-0.76c0.59-0.51,0.88-1.32,0.88-2.43v-9.43c0-0.65,0.19-1.2,0.58-1.66c0.38-0.46,0.88-0.69,1.48-0.69h2.12
		v10.82c0,3.28-0.75,5.43-2.24,6.45c-1.49,1.02-3.13,1.52-4.91,1.52c-1.73-0.09-3.32-0.64-4.75-1.66
		C54.39,38.71,53.68,36.61,53.68,33.42z M58.76,51.35h-2.94v-0.81h2.94V51.35z M62.62,51.35h-2.94v-0.81h2.94V51.35z M66.48,51.35
		h-2.94v-0.81h2.94V51.35z M70.34,51.35H67.4v-0.81h2.94V51.35z M74.2,51.35h-2.94v-0.81h2.94V51.35z M72.52,38.62v6.87
		c0,0.65-0.2,1.2-0.61,1.66c-0.4,0.46-0.89,0.69-1.45,0.69H68.4V30.57c0-3.23,0.83-5.44,2.48-6.62c1.66-1.18,3.45-1.77,5.39-1.77
		c1.01,0,2.03,0.22,3.06,0.66c1.03,0.44,1.85,1.07,2.45,1.91c1.21,1.8,1.82,4.11,1.82,6.93c0,2.92-0.6,5.27-1.82,7.07
		c-1.21,1.76-2.76,2.63-4.66,2.63c-1.01,0-1.9-0.21-2.66-0.62C73.64,40.31,73,39.59,72.52,38.62z M78.06,51.35h-2.94v-0.81h2.94
		V51.35z M81.93,51.35h-2.94v-0.81h2.94V51.35z M85.79,51.35h-2.94v-0.81h2.94V51.35z M89.85,51.35h-3.14v-0.81h3.14V51.35z
		 M93.71,51.35h-2.94v-0.81h2.94V51.35z M97.57,51.35h-2.94v-0.81h2.94V51.35z M97.28,38.2c-0.97,1.52-2.2,2.47-3.69,2.84
		c-1.33,0.42-2.68,0.45-4.03,0.11c-1.35-0.35-2.43-0.94-3.24-1.77c-0.85-0.83-1.45-1.95-1.82-3.36c-0.36-1.41-0.54-2.88-0.54-4.4
		c0-1.25,0.15-2.5,0.45-3.74c0.3-1.25,0.78-2.29,1.42-3.12c1.05-1.39,2.4-2.21,4.06-2.46c1.66-0.25,3.15-0.1,4.48,0.45
		c1.53,0.69,2.66,1.9,3.39,3.61c0.69,1.52,1.03,3.3,1.03,5.34c0,1.48-0.14,2.75-0.43,3.81C98.09,36.56,97.73,37.46,97.28,38.2z
		 M101.43,51.35h-2.94v-0.81h2.94V51.35z M105.29,51.35h-2.94v-0.81h2.94V51.35z M109.15,51.35h-2.94v-0.81h2.94V51.35z
		 M113.01,51.25c-0.27,0.06-0.54,0.1-0.83,0.1h-2.12v-0.81h2.12c0.29,0,0.56-0.04,0.83-0.12V51.25z M113.52,41.04h-2.12
		c-0.6,0-1.1-0.22-1.48-0.66c-0.39-0.44-0.58-1.01-0.58-1.7v-9.43c0-1.11-0.29-1.91-0.88-2.43c-0.59-0.51-1.24-0.76-1.97-0.76
		c-0.73,0-1.37,0.26-1.94,0.76c-0.57,0.51-0.85,1.32-0.85,2.43v11.79h-4.24V30.23c0-3.14,0.72-5.24,2.15-6.31
		c1.43-1.06,3.02-1.64,4.75-1.73c1.77,0,3.41,0.53,4.9,1.6c1.49,1.06,2.24,3.21,2.24,6.45V41.04z M113.73,16.67v-0.88
		c0.73,0.33,1.35,0.89,1.81,1.6h-0.93C114.35,17.11,114.06,16.86,113.73,16.67z M113.93,50.9V50c0.25-0.17,0.48-0.37,0.68-0.6h0.93
		C115.13,50.04,114.57,50.56,113.93,50.9z M116.36,46.56c0,0.63-0.11,1.23-0.3,1.78h-0.77c0.24-0.54,0.38-1.14,0.38-1.78v-1.59h0.7
		V46.56z M116.36,43.92h-0.7v-3.37h0.7V43.92z M116.36,39.5h-0.7v-3.36h0.7V39.5z M116.36,35.08h-0.7v-3.36h0.7V35.08z
		 M116.36,30.66h-0.7v-3.36h0.7V30.66z M116.36,26.24h-0.7v-3.36h0.7V26.24z M116.36,21.82h-0.7v-1.59c0-0.64-0.14-1.24-0.37-1.78
		h0.78c0.19,0.55,0.3,1.15,0.3,1.78V21.82z"/>
	<rect x="19.97" y="22.87" class="st0" width="0.7" height="3.36"/>
	<rect x="19.97" y="27.29" class="st0" width="0.7" height="3.37"/>
	<rect x="19.97" y="31.71" class="st0" width="0.7" height="3.36"/>
	<rect x="19.97" y="36.14" class="st0" width="0.7" height="3.36"/>
	<rect x="19.97" y="40.56" class="st0" width="0.7" height="3.37"/>
	<path class="st0" d="M21.04,48.34h-0.77c-0.19-0.55-0.3-1.15-0.3-1.78v-1.59h0.7v1.59C20.67,47.21,20.81,47.8,21.04,48.34z"/>
	<path class="st0" d="M20.67,21.82h-0.7v-1.59c0-0.63,0.11-1.23,0.3-1.78h0.77c-0.24,0.53-0.37,1.14-0.37,1.78V21.82z"/>
	<path class="st0" d="M21.65,17.4h-0.86c0.74-1.14,1.9-1.89,3.21-1.94v0.8c-0.92,0.04-1.75,0.5-2.36,1.21V17.4z"/>
	<path class="st0" d="M24.01,50.53v0.8c-1.32-0.05-2.48-0.8-3.21-1.94h0.86v-0.07C22.25,50.04,23.09,50.49,24.01,50.53z"/>
	<rect x="24.93" y="15.45" class="st0" width="2.94" height="0.8"/>
	<rect x="24.93" y="50.54" class="st0" width="2.94" height="0.81"/>
	<rect x="28.79" y="15.45" class="st0" width="2.94" height="0.8"/>
	<rect x="28.79" y="50.54" class="st0" width="2.94" height="0.81"/>
	<rect x="32.65" y="15.45" class="st0" width="2.94" height="0.8"/>
	<rect x="32.65" y="50.54" class="st0" width="2.94" height="0.81"/>
	<path class="st0" d="M37.87,35.36c-0.45,1.94-1.29,3.42-2.54,4.44c-1.25,1.06-2.83,1.59-4.72,1.59c-2.3,0-4.1-0.85-5.39-2.56
		c-1.29-1.66-1.94-4.04-1.94-7.14c0-2.96,0.63-5.27,1.88-6.93c1.29-1.71,3.09-2.57,5.39-2.57c2.42,0,4.3,0.83,5.63,2.5
		c0.73,1.02,1.25,2.19,1.57,3.54h-4.24c-0.2-0.46-0.4-0.81-0.61-1.04c-0.52-0.65-1.27-0.97-2.24-0.97c-0.89,0-1.62,0.32-2.18,0.97
		c-0.73,0.92-1.09,2.45-1.09,4.58s0.36,3.63,1.09,4.51c0.53,0.74,1.31,1.11,2.36,1.11c0.69,0,1.27-0.16,1.76-0.48
		c0.12-0.04,0.24-0.13,0.34-0.24c0.1-0.12,0.21-0.24,0.33-0.38c0.08-0.14,0.24-0.32,0.48-0.55c0.24-0.23,0.61-0.35,1.09-0.35H37.87z
		"/>
	<rect x="36.51" y="15.45" class="st0" width="2.94" height="0.8"/>
	<rect x="36.51" y="50.54" class="st0" width="2.94" height="0.81"/>
	<rect x="40.37" y="15.45" class="st0" width="2.94" height="0.8"/>
	<rect x="40.37" y="50.54" class="st0" width="2.94" height="0.81"/>
	<rect x="44.24" y="15.45" class="st0" width="2.94" height="0.8"/>
	<rect x="44.24" y="50.54" class="st0" width="2.94" height="0.81"/>
	<rect x="48.1" y="15.45" class="st0" width="2.94" height="0.8"/>
	<rect x="48.1" y="50.54" class="st0" width="2.94" height="0.81"/>
	<path class="st0" d="M51.98,26.34c-0.73-1.71-1.86-2.91-3.39-3.61c-1.33-0.55-2.83-0.7-4.48-0.45c-1.66,0.26-3.01,1.08-4.06,2.46
		c-0.64,0.83-1.12,1.87-1.42,3.12c-0.3,1.25-0.45,2.5-0.45,3.74c0,1.53,0.18,2.99,0.55,4.4c0.36,1.41,0.97,2.53,1.82,3.36
		c0.81,0.83,1.89,1.42,3.24,1.77c1.35,0.35,2.7,0.31,4.03-0.11c1.49-0.37,2.73-1.32,3.69-2.84c0.44-0.74,0.81-1.64,1.09-2.71
		c0.28-1.06,0.43-2.33,0.43-3.81C53.01,29.65,52.67,27.87,51.98,26.34z M48.11,35.77c-0.49,0.83-1.04,1.35-1.67,1.56
		c-0.63,0.21-1.24,0.19-1.85-0.07c-0.6-0.25-1.03-0.57-1.27-0.93c-0.6-0.83-0.95-2.3-1.03-4.4c-0.08-2.1,0.3-3.68,1.15-4.75
		c0.28-0.32,0.73-0.59,1.33-0.8c0.61-0.21,1.21-0.2,1.82,0.03c0.61,0.23,1.14,0.76,1.61,1.6c0.46,0.83,0.7,2.08,0.7,3.74
		C48.85,33.6,48.59,34.94,48.11,35.77z"/>
	<rect x="51.96" y="15.45" class="st0" width="2.94" height="0.8"/>
	<rect x="51.96" y="50.54" class="st0" width="2.94" height="0.81"/>
	<rect x="55.82" y="15.45" class="st0" width="2.94" height="0.8"/>
	<rect x="55.82" y="50.54" class="st0" width="2.94" height="0.81"/>
	<rect x="59.68" y="15.45" class="st0" width="2.94" height="0.8"/>
	<rect x="59.68" y="50.54" class="st0" width="2.94" height="0.81"/>
	<rect x="63.54" y="15.45" class="st0" width="2.94" height="0.8"/>
	<rect x="63.54" y="50.54" class="st0" width="2.94" height="0.81"/>
	<path class="st0" d="M55.83,39.72c-1.43-1.01-2.15-3.12-2.15-6.31V22.6h4.24v11.79c0,1.11,0.28,1.92,0.85,2.43
		c0.57,0.51,1.21,0.76,1.94,0.76c0.73,0,1.38-0.25,1.97-0.76c0.59-0.51,0.88-1.32,0.88-2.43v-9.43c0-0.65,0.19-1.2,0.58-1.66
		c0.38-0.46,0.88-0.69,1.48-0.69h2.12v10.82c0,3.28-0.75,5.43-2.24,6.45c-1.49,1.02-3.13,1.52-4.91,1.52
		C58.85,41.3,57.26,40.74,55.83,39.72z"/>
	<rect x="67.4" y="15.45" class="st0" width="2.94" height="0.8"/>
	<rect x="67.4" y="50.54" class="st0" width="2.94" height="0.81"/>
	<rect x="71.26" y="15.45" class="st0" width="2.94" height="0.8"/>
	<rect x="71.26" y="50.54" class="st0" width="2.94" height="0.81"/>
	<rect x="75.12" y="15.45" class="st0" width="2.94" height="0.8"/>
	<rect x="75.12" y="50.54" class="st0" width="2.94" height="0.81"/>
	<rect x="78.99" y="15.45" class="st0" width="2.94" height="0.8"/>
	<rect x="78.99" y="50.54" class="st0" width="2.94" height="0.81"/>
	<path class="st0" d="M81.78,24.75c-0.6-0.83-1.42-1.47-2.45-1.91c-1.03-0.44-2.05-0.66-3.06-0.66c-1.94,0-3.73,0.59-5.39,1.77
		c-1.66,1.18-2.48,3.39-2.48,6.62v17.27h2.06c0.57,0,1.05-0.23,1.45-0.69c0.4-0.46,0.61-1.02,0.61-1.66v-6.87
		c0.48,0.97,1.13,1.69,1.94,2.15c0.77,0.42,1.66,0.62,2.66,0.62c1.9,0,3.45-0.88,4.66-2.63c1.21-1.8,1.82-4.16,1.82-7.07
		C83.6,28.86,82.99,26.55,81.78,24.75z M78.51,35.84c-0.6,0.97-1.43,1.46-2.48,1.46c-1.13,0-2-0.49-2.6-1.46
		c-0.6-0.88-0.91-2.19-0.91-3.95c0-1.9,0.28-3.29,0.85-4.16c0.6-0.97,1.45-1.46,2.54-1.46c1.13,0,2,0.49,2.6,1.46
		c0.6,0.97,0.91,2.36,0.91,4.16C79.42,33.55,79.11,34.87,78.51,35.84z"/>
	<rect x="82.85" y="15.45" class="st0" width="2.94" height="0.8"/>
	<rect x="82.85" y="50.54" class="st0" width="2.94" height="0.81"/>
	<rect x="86.71" y="15.45" class="st0" width="2.94" height="0.8"/>
	<rect x="86.71" y="50.54" class="st0" width="3.14" height="0.81"/>
	<rect x="90.57" y="15.45" class="st0" width="2.94" height="0.8"/>
	<rect x="90.77" y="50.54" class="st0" width="2.94" height="0.81"/>
	<rect x="94.43" y="15.45" class="st0" width="2.94" height="0.8"/>
	<rect x="94.63" y="50.54" class="st0" width="2.94" height="0.81"/>
	<path class="st0" d="M97.77,26.34c-0.73-1.71-1.86-2.91-3.39-3.61c-1.33-0.55-2.83-0.7-4.48-0.45c-1.65,0.26-3.01,1.08-4.06,2.46
		c-0.65,0.83-1.12,1.87-1.42,3.12c-0.3,1.25-0.45,2.5-0.45,3.74c0,1.53,0.18,2.99,0.54,4.4c0.36,1.41,0.97,2.53,1.82,3.36
		c0.81,0.83,1.89,1.42,3.24,1.77c1.35,0.35,2.7,0.31,4.03-0.11c1.49-0.37,2.73-1.32,3.69-2.84c0.45-0.74,0.81-1.64,1.09-2.71
		c0.28-1.06,0.43-2.33,0.43-3.81C98.8,29.65,98.46,27.87,97.77,26.34z M93.89,35.77c-0.49,0.83-1.04,1.35-1.66,1.56
		c-0.63,0.21-1.24,0.19-1.85-0.07c-0.6-0.25-1.03-0.57-1.27-0.93c-0.6-0.83-0.95-2.3-1.03-4.4c-0.08-2.1,0.3-3.68,1.15-4.75
		c0.28-0.32,0.73-0.59,1.33-0.8c0.6-0.21,1.21-0.2,1.82,0.03s1.14,0.76,1.6,1.6c0.46,0.83,0.7,2.08,0.7,3.74
		C94.64,33.6,94.38,34.94,93.89,35.77z"/>
	<rect x="98.29" y="15.45" class="st0" width="2.94" height="0.8"/>
	<rect x="98.49" y="50.54" class="st0" width="2.94" height="0.81"/>
	<rect x="102.15" y="15.45" class="st0" width="2.94" height="0.8"/>
	<rect x="102.35" y="50.54" class="st0" width="2.94" height="0.81"/>
	<rect x="106.01" y="15.45" class="st0" width="2.94" height="0.8"/>
	<rect x="106.21" y="50.54" class="st0" width="2.94" height="0.81"/>
	<path class="st0" d="M112.19,16.25h-2.31v-0.8h2.31c0.21,0,0.42,0.02,0.63,0.06v0.81C112.61,16.28,112.4,16.25,112.19,16.25z"/>
	<path class="st0" d="M112.19,50.54c0.29,0,0.56-0.04,0.83-0.12v0.83c-0.27,0.06-0.54,0.1-0.83,0.1h-2.12v-0.81H112.19z"/>
	<path class="st0" d="M113.52,30.23v10.82h-2.12c-0.6,0-1.1-0.22-1.48-0.66c-0.39-0.44-0.58-1.01-0.58-1.7v-9.43
		c0-1.11-0.29-1.91-0.88-2.43c-0.59-0.51-1.24-0.76-1.97-0.76c-0.73,0-1.37,0.26-1.94,0.76c-0.57,0.51-0.85,1.32-0.85,2.43v11.79
		h-4.24V30.23c0-3.14,0.72-5.24,2.15-6.31c1.43-1.06,3.02-1.64,4.75-1.73c1.77,0,3.41,0.53,4.9,1.6
		C112.77,24.84,113.52,26.99,113.52,30.23z"/>
	<path class="st0" d="M114.62,49.4h0.93c-0.42,0.64-0.97,1.16-1.61,1.5V50C114.18,49.83,114.41,49.63,114.62,49.4z"/>
	<path class="st0" d="M113.73,16.67v-0.88c0.73,0.33,1.35,0.89,1.81,1.6h-0.93C114.35,17.11,114.06,16.86,113.73,16.67z"/>
	<path class="st0" d="M116.06,18.45c0.19,0.55,0.3,1.15,0.3,1.78v1.59h-0.7v-1.59c0-0.64-0.14-1.24-0.37-1.78H116.06z"/>
	<rect x="115.66" y="22.87" class="st0" width="0.7" height="3.36"/>
	<rect x="115.66" y="27.29" class="st0" width="0.7" height="3.36"/>
	<rect x="115.66" y="31.71" class="st0" width="0.7" height="3.36"/>
	<rect x="115.66" y="36.14" class="st0" width="0.7" height="3.36"/>
	<rect x="115.66" y="40.56" class="st0" width="0.7" height="3.37"/>
	<path class="st0" d="M115.66,44.98h0.7v1.59c0,0.63-0.11,1.23-0.3,1.78h-0.77c0.24-0.54,0.38-1.14,0.38-1.78V44.98z"/>
</g>
</svg>
